<svg width="143" height="56" xmlns="http://www.w3.org/2000/svg"><path d="M0 0h8.144v4.05H3.672v4.544h1.74C7.802 8.594 9 10.14 9 13.231v5.256c0 1.525-.24 2.627-.718 3.307C7.712 22.598 6.69 23 5.218 23H0V0zm4.362 19.445a.788.788 0 0 0 .76-.325c.138-.312.2-.658.179-1.004v-4.483a2.074 2.074 0 0 0-.18-.974.788.788 0 0 0-.759-.324h-.69v7.11h.69zM21.243 23V10.79L18.757 23H15V0h3.757v12.304L21.243 0H25v23zM34.695 7.163h-3.66v-2.89a4.809 4.809 0 0 1 .86-2.919C32.577.452 33.603 0 34.971 0h.776c1.387 0 2.44.391 3.162 1.174.591.702.887 1.746.887 3.13V6.8c0 1.746-.444 2.88-1.331 3.4 1.017.362 1.525 1.215 1.525 2.559v5.597a5.02 5.02 0 0 1-1.067 3.416 3.82 3.82 0 0 1-3.037 1.22h-.776c-1.424 0-2.496-.422-3.217-1.265a4.011 4.011 0 0 1-.887-2.769v-4.514h3.688v3.552c0 .702.259 1.053.776 1.053.5 0 .75-.351.749-1.053v-4.364a1.42 1.42 0 0 0-.125-.707c-.083-.13-.273-.196-.568-.196h-1.914V8.728h1.72a.735.735 0 0 0 .624-.211 1.43 1.43 0 0 0 .152-.783V4.936a1.503 1.503 0 0 0-.152-.813.66.66 0 0 0-.569-.21.63.63 0 0 0-.527.21c-.136.246-.194.53-.166.813v2.227zm15.263 6.13V23H46V0h3.958v8.78h2.084V0H56v23h-3.958v-9.707zM62 0h7.803v4.05h-4.07v5.008h3.2v4.143h-3.2v5.657H70V23h-8zm19.093 12.778h3.898v5.05a5.904 5.904 0 0 1-.974 3.579C83.229 22.469 82.037 23 80.443 23h-.797c-1.733 0-2.973-.531-3.721-1.593-.61-.822-.916-2.055-.916-3.699V5.081a5.53 5.53 0 0 1 1.034-3.548C76.811.511 78.012 0 79.646 0h.797c1.732 0 2.963.501 3.692 1.503.57.782.856 1.925.856 3.428v3.758h-3.898V5.08a1.635 1.635 0 0 0-.236-.977.898.898 0 0 0-.768-.316.855.855 0 0 0-.753.316c-.17.298-.247.637-.222.977v12.627c0 .903.335 1.354 1.004 1.353.65 0 .975-.45.975-1.353v-4.93zM6.746 53L4.04 43.262V53H0V30h4.041v8.842L6.685 30h3.98l-3.19 10.449L11 53zm18.246-5.453a6.103 6.103 0 0 1-1.203 3.974 4.05 4.05 0 0 1-3.32 1.474h-.86c-1.508 0-2.653-.466-3.435-1.4-.782-.932-1.174-2.281-1.174-4.048V35.72c0-1.786.353-3.17 1.06-4.154.744-1.043 1.917-1.565 3.52-1.565h.86c1.622 0 2.805.522 3.55 1.565.667.964 1.001 2.338 1.002 4.124v11.858zm-3.98-12.16c0-.982-.334-1.474-1.002-1.474a.889.889 0 0 0-.802.346 2.12 2.12 0 0 0-.229 1.129v12.28c-.013.333.072.663.244.948a.895.895 0 0 0 .816.376c.648 0 .973-.441.973-1.324v-12.28zm13.946 7.906V53H31V30h3.958v8.78h2.084V30H41v23h-3.958v-9.707zM53.593 56v-3.216H47V30h3.684v18.772h1.662V30h3.685v18.68H57V56zM63 30h7.803v4.05h-4.07v5.008h3.2V43.2h-3.2v5.658H71V53h-8zm17.958 13.293V53H77V30h3.958v8.78h2.084V30H87v23h-3.958v-9.707zM92 30h9v4.05h-2.647V53h-3.706V34.05H92zm18.672 13.788V53H107V30h5.217c1.473 0 2.495.402 3.065 1.206.479.66.718 1.772.718 3.338v4.606c0 3.092-1.196 4.637-3.59 4.638h-1.738zm0-3.74h.69a.788.788 0 0 0 .759-.325c.137-.303.2-.638.18-.974v-3.834a2.244 2.244 0 0 0-.18-1.035.788.788 0 0 0-.759-.325h-.69v6.492zM127.346 53l-.397-3.864h-2.266l-.34 3.864H121l2.663-23h4.476L131 53h-3.654zm-1.559-15.704l-.736 7.883h1.53l-.794-7.883zM134 30h9v4.05h-2.647V53h-3.706V34.05H134z" opacity=".15"/></svg>