<svg width="49" height="50" xmlns="http://www.w3.org/2000/svg"><path d="M.054 6.009c0-1.99.534-3.524 1.6-4.602C2.584.47 3.765 0 5.198 0c1.918 0 3.32.629 4.207 1.887.49.706.752 1.415.788 2.127H7.81c-.154-.547-.353-.96-.595-1.238-.433-.495-1.075-.742-1.926-.742-.866 0-1.549.35-2.049 1.048-.5.698-.75 1.687-.75 2.965 0 1.279.264 2.236.793 2.873.528.637 1.2.955 2.014.955.835 0 1.472-.273 1.91-.82.243-.293.444-.734.603-1.322h2.36c-.207 1.243-.734 2.253-1.582 3.032-.848.778-1.935 1.167-3.26 1.167-1.64 0-2.928-.526-3.866-1.577C.523 9.298.054 7.849.054 6.009zm14.02-3.828H11.84V.147h2.235V2.18zM11.84 3.186h2.235v8.43H11.84v-8.43zm3.504 1.647v-1.57h1.175V.913h2.18v2.35h1.37v1.57h-1.37v4.455c0 .345.045.56.132.645.088.085.356.128.804.128a6.179 6.179 0 0 0 .434-.016v1.648l-1.044.038c-1.042.036-1.753-.144-2.135-.541-.247-.253-.371-.642-.371-1.168V4.833h-1.175zm6.48 8.398l.278.016c.217.01.423.002.619-.023a1.11 1.11 0 0 0 .495-.178c.129-.088.249-.27.36-.55.11-.278.155-.448.135-.51l-3.093-8.8h2.451l1.84 6.218 1.74-6.218h2.344l-2.893 8.29c-.556 1.598-.997 2.59-1.322 2.973-.325.384-.974.577-1.949.577-.196 0-.353-.002-.471-.004a13.488 13.488 0 0 1-.534-.027V13.23zM.054 25.014c0-1.99.534-3.524 1.6-4.602.929-.938 2.11-1.407 3.543-1.407 1.918 0 3.32.629 4.207 1.887.49.706.752 1.415.788 2.127H7.81c-.154-.547-.353-.96-.595-1.238-.433-.495-1.075-.742-1.926-.742-.866 0-1.549.35-2.049 1.048-.5.698-.75 1.687-.75 2.965 0 1.279.264 2.237.793 2.873.528.637 1.2.955 2.014.955.835 0 1.472-.273 1.91-.82.243-.293.444-.734.603-1.322h2.36c-.207 1.243-.734 2.253-1.582 3.032-.848.778-1.935 1.167-3.26 1.167-1.64 0-2.928-.526-3.866-1.577C.523 28.303.054 26.854.054 25.014zm15.536 4.052c.644 0 1.14-.23 1.485-.688.345-.46.518-1.111.518-1.957 0-.845-.173-1.496-.518-1.953-.346-.456-.84-.684-1.485-.684-.644 0-1.14.228-1.489.684-.348.457-.522 1.108-.522 1.953 0 .846.174 1.498.522 1.957.348.458.845.688 1.489.688zm4.315-2.645c0 1.237-.356 2.296-1.067 3.175s-1.792 1.318-3.24 1.318c-1.449 0-2.529-.44-3.24-1.318-.712-.88-1.068-1.938-1.068-3.175 0-1.217.356-2.27 1.068-3.163.711-.892 1.791-1.338 3.24-1.338 1.448 0 2.529.446 3.24 1.338.711.892 1.067 1.946 1.067 3.163zm4.686-7.315c.14 0 .266.003.38.011l.463.035v1.794a7.293 7.293 0 0 0-.622-.035c-.291-.007-.493.057-.603.194a.701.701 0 0 0-.167.452v.711h1.446v1.555h-1.446v6.797h-2.196v-6.797h-1.23v-1.555h1.207v-.54c0-.903.152-1.524.456-1.865.32-.505 1.09-.757 2.312-.757zm5.274 0c.14 0 .266.003.38.011l.463.035v1.794a7.293 7.293 0 0 0-.622-.035c-.291-.007-.492.057-.603.194a.701.701 0 0 0-.167.452v.711h1.447v1.555h-1.447v6.797H27.12v-6.797h-1.23v-1.555h1.207v-.54c0-.903.152-1.524.456-1.865.32-.505 1.09-.757 2.312-.757zm5.491 4.678c-.51 0-.906.16-1.187.48-.281.32-.458.752-.53 1.299h3.426c-.036-.583-.213-1.025-.53-1.327-.317-.301-.71-.452-1.179-.452zm0-1.817c.701 0 1.333.131 1.895.394s1.026.678 1.392 1.245c.33.5.543 1.08.641 1.74.057.387.08.944.07 1.67h-5.769c.031.846.297 1.439.797 1.78.304.21.67.316 1.098.316.453 0 .822-.129 1.106-.386.154-.14.29-.333.41-.58h2.25c-.057.5-.317 1.007-.781 1.523-.722.82-1.732 1.23-3.032 1.23a4.275 4.275 0 0 1-2.838-1.037c-.82-.69-1.23-1.814-1.23-3.371 0-1.46.37-2.578 1.11-3.356.74-.779 1.7-1.168 2.881-1.168zm8.808 1.817c-.51 0-.906.16-1.187.48-.28.32-.458.752-.53 1.299h3.426c-.036-.583-.213-1.025-.53-1.327-.317-.301-.71-.452-1.179-.452zm0-1.817c.701 0 1.333.131 1.895.394s1.026.678 1.392 1.245c.33.5.544 1.08.642 1.74.056.387.08.944.07 1.67h-5.77c.031.846.297 1.439.797 1.78.304.21.67.316 1.098.316.453 0 .822-.129 1.106-.386.154-.14.29-.333.41-.58h2.25c-.057.5-.317 1.007-.781 1.523-.722.82-1.732 1.23-3.032 1.23a4.275 4.275 0 0 1-2.838-1.037c-.82-.69-1.23-1.814-1.23-3.371 0-1.46.37-2.578 1.11-3.356.74-.779 1.7-1.168 2.881-1.168zM8.213 41.784c-.18-.779-.622-1.323-1.323-1.632a3.248 3.248 0 0 0-1.307-.255c-.917 0-1.671.347-2.262 1.04-.59.693-.885 1.736-.885 3.128 0 1.402.32 2.395.959 2.977.64.583 1.366.874 2.18.874.8 0 1.454-.23 1.965-.692.51-.461.825-1.066.943-1.813H5.846v-1.903h4.748v6.117H9.017l-.24-1.423c-.459.542-.871.923-1.237 1.145-.63.386-1.402.58-2.32.58-1.51 0-2.748-.523-3.712-1.57C.503 47.305 0 45.867 0 44.042c0-1.846.508-3.325 1.523-4.439 1.016-1.114 2.359-1.67 4.03-1.67 1.448 0 2.612.367 3.49 1.102.88.734 1.384 1.65 1.513 2.749H8.213zm6.673-.588v5.08c0 .48.057.841.17 1.083.202.428.596.642 1.184.642.752 0 1.268-.304 1.546-.912.145-.33.217-.766.217-1.307v-4.586h2.235v8.43h-2.142v-1.192a4.06 4.06 0 0 0-.155.232c-.083.13-.18.243-.294.34-.345.31-.68.521-1.001.635-.323.113-.7.17-1.133.17-1.248 0-2.088-.449-2.521-1.346-.243-.495-.364-1.224-.364-2.188v-5.08h2.258zm9.744-1.005h-2.235v-2.034h2.235v2.034zm-2.235 1.005h2.235v8.43h-2.235v-8.43zm7.478-.201c.51 0 .964.112 1.361.336.397.225.72.535.967.932v-4.021h2.235v11.383h-2.142v-1.167c-.315.5-.673.863-1.075 1.09-.402.227-.902.34-1.5.34-.985 0-1.814-.398-2.487-1.195-.672-.796-1.009-1.818-1.009-3.066 0-1.438.331-2.57.994-3.395.662-.825 1.548-1.237 2.656-1.237zm.48 7.037c.623 0 1.098-.232 1.423-.696.324-.464.487-1.064.487-1.802 0-1.03-.26-1.768-.781-2.211a1.68 1.68 0 0 0-1.114-.402c-.644 0-1.117.243-1.419.73-.302.488-.452 1.092-.452 1.814 0 .778.153 1.4.46 1.867.307.467.772.7 1.396.7zm9.41-5.243c-.51 0-.905.16-1.186.48-.281.32-.458.752-.53 1.299h3.426c-.036-.583-.213-1.025-.53-1.326-.317-.302-.71-.453-1.18-.453zm0-1.817c.702 0 1.334.131 1.896.394.561.263 1.025.678 1.391 1.245.33.5.544 1.08.642 1.74.057.387.08.944.07 1.67h-5.769c.03.846.296 1.439.797 1.78.304.21.67.316 1.098.316.453 0 .822-.129 1.105-.386.155-.14.292-.333.41-.58h2.25c-.056.5-.316 1.007-.78 1.523-.722.82-1.733 1.23-3.032 1.23a4.275 4.275 0 0 1-2.838-1.037c-.82-.69-1.23-1.814-1.23-3.371 0-1.46.37-2.578 1.11-3.356.74-.779 1.7-1.168 2.88-1.168z" fill-rule="evenodd" opacity=".153"/></svg>