<svg width="229" height="50" xmlns="http://www.w3.org/2000/svg"><g fill="none" opacity=".153"><rect fill="#000" width="168" height="50" rx="6.228"/><path fill="#FFF" d="M13 39V11h17v4.737H17.993v6.627H28.39v4.737H17.993V39zm20 0V11h10.882c2.783 0 4.77.251 5.963.754a6.336 6.336 0 0 1 2.94 2.617 8.322 8.322 0 0 1 1.15 4.46 7.738 7.738 0 0 1-1.758 5.29 8.061 8.061 0 0 1-4.994 2.522 12.379 12.379 0 0 1 2.747 2.339 32.515 32.515 0 0 1 2.96 4.555L56 39h-6.166l-3.74-6.093a39.56 39.56 0 0 0-2.744-4.135 3.99 3.99 0 0 0-1.533-1.146 7.756 7.756 0 0 0-2.598-.315h-1.065V39H33zm5.153-16.158h3.834a21.303 21.303 0 0 0 4.472-.278 2.822 2.822 0 0 0 1.555-1.117 3.787 3.787 0 0 0 .596-2.234 3.55 3.55 0 0 0-.596-2.15 3.02 3.02 0 0 0-1.62-1.116 22.792 22.792 0 0 0-4.194-.21h-4.046v7.105zM81 39h-5.45l-2.18-6.341h-9.967L61.343 39H56l9.696-28h5.324L81 39zm-9.249-11.078l-3.437-10.39-3.374 10.39h6.811zM84 39V11h4.948l10.314 18.699V11H104v28h-5.115L88.738 20.74V39zm42.062-10.785l4.938 1.74c-.771 3.136-2.053 5.427-3.845 6.874a11.07 11.07 0 0 1-14.625-1.29c-2.353-2.664-3.53-6.26-3.53-10.785 0-4.781 1.185-8.523 3.554-11.225a10.501 10.501 0 0 1 8.308-3.519c2.619-.08 5.166.866 7.109 2.64a11.09 11.09 0 0 1 2.987 5.564l-5.043 1.338a6.035 6.035 0 0 0-1.926-3.49 5.113 5.113 0 0 0-3.4-1.214 5.577 5.577 0 0 0-4.568 2.218c-1.178 1.479-1.768 3.92-1.768 7.324 0 3.532.575 6.043 1.723 7.534a5.392 5.392 0 0 0 4.476 2.238 4.844 4.844 0 0 0 3.488-1.425 8.662 8.662 0 0 0 2.122-4.522zM135 39V11h5.036v11.02h9.928V11H155v28h-5.036V26.757h-9.928V39z"/><path d="M178 38.988V11.01h9.447a10.583 10.583 0 0 1 4.545.81 6.592 6.592 0 0 1 2.744 2.528 7.043 7.043 0 0 1 1.068 3.794 6.652 6.652 0 0 1-.921 3.471 6.818 6.818 0 0 1-2.594 2.479 6.738 6.738 0 0 1 3.447 2.473 7.169 7.169 0 0 1 1.26 4.307 8.566 8.566 0 0 1-1.14 4.459 6.76 6.76 0 0 1-3.044 2.788 12.86 12.86 0 0 1-5.23.869H178zm3.327-16.222h5.449c1.02.04 2.042-.049 3.04-.267a3.803 3.803 0 0 0 2.001-1.346 4.213 4.213 0 0 0 .702-2.566 4.58 4.58 0 0 0-.639-2.51 3.31 3.31 0 0 0-1.697-1.384 12.808 12.808 0 0 0-3.805-.382h-5.051v8.455zm0 12.92h6.265a10.004 10.004 0 0 0 3.06-.343 4.111 4.111 0 0 0 2.169-1.632 5.104 5.104 0 0 0 .744-2.853 4.826 4.826 0 0 0-.712-2.681 4.157 4.157 0 0 0-1.918-1.604 10.463 10.463 0 0 0-3.783-.505h-5.825v9.619zM203 39V11h4v28zm6 0v-3.438l12.95-17.934a42.3 42.3 0 0 1 2.628-3.324h-14.125V11h18.125v3.304L214.39 33.728l-1.536 1.968H229V39h-20z" fill="#000"/></g></svg>