<svg width="47" height="75" xmlns="http://www.w3.org/2000/svg"><g opacity=".15"><path d="M47 74.992h-.464c-15.353 0-30.705.003-46.057.008-.37 0-.48-.09-.479-.47C.009 49.836.012 25.14.008.447V0H47v74.992zm-2.2-2.217V2.19H2.235v70.586H44.8z"/><path d="M32.01 10.483l-2.417 6.97a92985.493 92985.493 0 0 0-12.154 35.064c-.12.345-.26.509-.654.48a12.673 12.673 0 0 0-1.65-.002c-.373.021-.543-.098-.669-.462a3079.497 3079.497 0 0 0-4.795-13.8L7.113 31.39c-.034-.098-.064-.198-.113-.35l2.217-.845 6.724 19.29c.1-.267.18-.464.25-.665 4.77-13.752 9.535-27.507 14.296-41.263.155-.45.357-.584.803-.553.536.033 1.074.034 1.611.002.313-.014.453.084.56.39 1.48 4.266 2.971 8.53 4.472 12.789a11836.2 11836.2 0 0 0 2.937 8.375c.042.122.08.246.13.404l-2.216.843-6.774-19.324z"/><path d="M38 51.172l-2.35.826c-.06-.14-.114-.253-.158-.37-.406-1.071-.816-2.142-1.211-3.219-.086-.234-.188-.343-.475-.341-2.21.013-4.421.014-6.632 0-.286-.002-.385.105-.472.34-.436 1.183-.89 2.36-1.357 3.592L23 51.18c.043-.14.069-.25.108-.355 1.947-5.145 3.893-10.29 5.837-15.436.108-.286.244-.401.57-.388.665.027 1.332.022 1.997.002.292-.01.413.095.51.353a6162.51 6162.51 0 0 0 5.481 14.497c.16.422.318.843.497 1.32zm-4.784-5.555l-2.724-7.204-2.727 7.204h5.451zM11.395 16.713V24H9V7h2.378v7.276c.57 0 1.09.016 1.607-.013.12-.006.253-.152.345-.262 1.84-2.203 3.679-4.41 5.513-6.617l.294-.346L21 8.575 15.404 15.3l2.041 2.46c.885 1.064 1.764 2.134 2.661 3.187.184.216.208.392.11.652-.274.73-.518 1.47-.798 2.279-.13-.148-.219-.246-.304-.349A5014.825 5014.825 0 0 1 13.678 17c-.172-.208-.346-.301-.615-.292-.544.02-1.09.006-1.668.006zm13.152 45.639L27 66.996c-.604 0-1.143.015-1.68-.013-.095-.005-.209-.17-.269-.286a276.282 276.282 0 0 1-1.896-3.71c-.117-.235-.247-.334-.511-.326-.658.02-1.317.006-2.012.006v4.303H19V56.04a.459.459 0 0 1 .131-.04c1.426.01 2.853.015 4.279.044.318.015.633.07.938.163 2.232.63 3.046 3.569 1.433 5.222-.342.35-.788.595-1.234.923zm-3.907-1.067c.941 0 1.877.091 2.787-.025 1.015-.13 1.537-.942 1.5-2.028-.038-1.069-.602-1.743-1.642-1.871-.57-.07-1.152-.044-1.728-.056-.301-.006-.602 0-.917 0v3.98zM41 62.04c-.007 1.187-.155 2.342-.706 3.418-.829 1.62-2.203 2.467-4.06 2.537-1.855.07-3.337-.623-4.33-2.175a5.424 5.424 0 0 1-.825-2.447c-.125-1.336-.147-2.67.28-3.97.937-2.865 4.014-4.195 6.78-2.915 1.664.77 2.418 2.169 2.708 3.844.098.561.105 1.138.153 1.707zm-1.784.037l-.103-.016c.02-1.025-.037-2.042-.506-2.986-.514-1.035-1.363-1.586-2.57-1.6-1.205-.015-2.107.496-2.598 1.54a5.879 5.879 0 0 0-.52 1.862c-.134 1.28-.158 2.573.337 3.807.514 1.28 1.496 1.927 2.846 1.898 1.314-.028 2.289-.715 2.678-2.038.234-.798.297-1.643.436-2.467zM8.866 67H7.009v-.408c0-3.385.005-6.77-.009-10.154-.001-.35.107-.445.486-.438 1.639.034 3.282-.013 4.917.072 1.711.09 3.019 1.06 3.426 2.387.694 2.264-.78 4.149-3.434 4.333-1 .07-2.009.036-3.013.048-.157.002-.314 0-.516 0V67zm.015-5.464c.96 0 1.872.003 2.783-.002a4.38 4.38 0 0 0 .513-.042c1.217-.143 1.885-.81 1.935-1.93.049-1.104-.63-2.034-1.778-2.148-1.13-.112-2.285-.025-3.453-.025v4.147z"/></g></svg>