<svg width="131" height="53" xmlns="http://www.w3.org/2000/svg" xmlns:xlink="http://www.w3.org/1999/xlink"><defs><path id="a" d="M0 53h130V0H0z"/></defs><g transform="translate(.608)" fill="none" fill-rule="evenodd" opacity=".153"><path d="M45.33 13.11h-.015c0 1.542-.06 3.088.013 4.627.134 2.816 2.8 4.36 5.34 3.148 1.386-.66 1.88-1.863 1.898-3.28.037-2.94.04-5.882 0-8.822-.01-.65-.152-1.35-.43-1.934-.683-1.436-2.31-2.107-4.002-1.773-1.642.323-2.702 1.477-2.788 3.231-.077 1.598-.016 3.201-.016 4.802m12.643-.073c-.075 2.063-.02 4.142-.253 6.187-.442 3.873-3.926 6.945-7.832 7.045-2.116.054-4.195-.088-6.054-1.307-2.457-1.613-3.745-3.895-3.813-6.79a243.372 243.372 0 0 1-.005-10.047c.079-4.451 3.659-7.993 8.11-8.115 2.067-.056 4.073.122 5.886 1.281 2.483 1.587 3.728 3.87 3.852 6.764.07 1.657.013 3.32.013 4.98l.096.002M35.728 9.203h-4.794c-.149-.566-.252-1.172-.467-1.734-.48-1.249-1.277-2.172-2.663-2.307-1.331-.129-2.432.354-3.135 1.547-.255.433-.445.982-.451 1.48-.039 3.409-.064 6.818-.003 10.226.031 1.771 1.113 2.95 2.653 3.158 1.84.248 3.172-.559 3.742-2.31.197-.606.306-1.243.461-1.89h4.796c.297 1.353.123 2.645-.35 3.881-1.346 3.515-4.634 5.64-8.306 5.458-2.911-.144-5.33-1.215-6.937-3.832-.975-1.588-1.316-3.373-1.339-5.22-.036-2.881-.08-5.764-.022-8.645.07-3.476 1.367-6.355 4.473-7.964 2.819-1.46 5.776-1.419 8.523.249 2.66 1.615 3.96 4.137 3.963 7.34 0 .116-.013.233-.033.348-.01.054-.05.1-.111.215M130 20.914v4.918h-14.054V.89h14.046v4.721h-8.744v4.853h6.781v5.045h-6.775v5.404zM102.794 5.605v4.859h6.784v5.02h-6.738v5.413h8.708v4.935H97.5V.89h14.054v4.714z" fill="#000"/><mask id="b" fill="#fff"><use xlink:href="#a"/></mask><path d="M1.694 50.897h10.167V1.735H1.694v49.162zM0 52.555h13.615V0H0v52.555zM75.98.89v4.745h-8.333v4.909h6.082v4.911h-6.253v10.377h-5.111V.89zm9.105 24.942h-5.153V.89h13.615v4.755h-8.394v4.839h6.119v4.967h-6.187zM60.819 39.755h-3.414c-.125-.446-.208-.878-.365-1.28-.493-1.253-1.906-1.717-2.995-1.005-.841.55-.973 1.672-.198 2.315.48.399 1.07.668 1.633.946 1.083.536 2.22.965 3.264 1.568 2.02 1.168 2.914 2.993 2.716 5.384-.193 2.32-1.344 3.905-3.443 4.73-2.616 1.027-5.061.756-7.207-1.202-1.265-1.154-1.859-3.069-1.533-4.79h3.536c.116.396.22.817.361 1.225.536 1.543 2.492 2.134 3.763 1.145.985-.767.967-2.221-.13-2.893-1.004-.614-2.107-1.054-3.16-1.584-.641-.322-1.301-.62-1.902-1.014-3.666-2.399-2.429-7.803.532-9.248 2.827-1.38 6.367-.501 7.905 2.095.625 1.054.856 2.32.637 3.608m47.07 5.255h2.951l-1.384-5.14-.202.015-1.365 5.126m8.935 7.08h-4.055l-.944-3.3h-4.944l-.935 3.318h-4.054l5.59-18.26h3.696l5.646 18.242m-81.25-18.242h10.102v3.543h-6.277v3.505h4.84v3.652H39.43v3.965h6.242v3.595H35.574zm58.52 11.727l3.267-11.632h4.092L95.91 52.11h-3.824L86.52 33.85h4.082l3.305 11.7.187.027m-68.674-8.16v3.492h4.542v3.635h-4.604v7.565H21.52V33.85h10.102v3.568zm46.568 15.138h-3.801v-15.08h-4.065v-3.626H75.98v3.557h-3.992zm51.573-18.261v14.608h6v3.653h-9.662v-18.26zM79.493 52.555h3.514V33.849h-3.514z" fill="#000" mask="url(#b)"/><path d="M45.274 13.546c0-1.617-.06-3.238.016-4.852.082-1.772 1.102-2.938 2.681-3.264 1.629-.337 3.194.34 3.851 1.791.267.59.404 1.298.413 1.954.04 2.97.036 5.942 0 8.913-.017 1.432-.492 2.646-1.825 3.314-2.445 1.225-5.01-.335-5.139-3.18-.07-1.555-.012-3.117-.012-4.676h.015M3.817 22.979h6.67v-1.316h-6.67v1.316zm6.694 5.45c-.482 0-.86-.032-1.231.006-.994.103-1.875-.13-2.727-.672-.82-.523-1.712-.931-2.712-1.464v1.586l2.588 1.275-2.716 1.27.089 1.614c2.216-1.149 4.117-2.739 6.709-2.086v-1.529zm-.007-12.31v-1.457c-2.211-.74-4.393-1.468-6.665-2.227v1.574l4.384 1.309-.017.132-4.358 1.299v1.591l6.656-2.221zM6.512 37.138l-2.675-2.16-.07 1.632 2.654 2.217-.062.193H3.836v1.403h6.637v-1.39h-1.76l-1.022-.924 2.8-1.749v-1.664l-3.98 2.442zm-4.755 14.08h10.101V1.782H1.757v49.436zm105.844-5.789l1.422-5.329.211-.016 1.442 5.345H107.6z" fill="#FFF" mask="url(#b)"/><path d="M6.203 37.208L10.1 34.74v1.683L7.358 38.19l1.001.934h1.725v1.405H3.582V39.11h2.47l.062-.194-2.6-2.241.07-1.649 2.619 2.182m3.898-21.125l-6.58 2.178V16.7l4.31-1.274.016-.13-4.333-1.283V12.47l6.587 2.183v1.429zm0 12.341v1.541c-2.51-.657-4.353.945-6.5 2.102-.034-.627-.06-1.098-.087-1.626.859-.418 1.668-.81 2.631-1.28l-2.507-1.285v-1.599c.969.537 1.833.949 2.628 1.476.826.547 1.68.781 2.642.678.36-.04.726-.007 1.193-.007m-6.587-5.71H10.1v-1.336H3.514z" fill="#000" mask="url(#b)"/></g></svg>