<svg width="122" height="37" xmlns="http://www.w3.org/2000/svg"><g fill="none" fill-rule="evenodd" opacity=".153"><path d="M18.155 24.82c.197-2.241-.283-4.035-1.436-5.382-1.153-1.338-2.803-2.007-4.946-2.007-2.152 0-4.027.753-5.624 2.26-1.582 1.505-2.471 3.388-2.668 5.648-.196 2.232.317 4.079 1.535 5.541 1.22 1.453 2.86 2.18 4.92 2.18 2.143 0 3.995-.784 5.556-2.353 1.569-1.55 2.456-3.512 2.663-5.887m2.921.027a12.713 12.713 0 0 1-2.335 6.365c-1.072 1.498-2.402 2.654-3.99 3.469s-3.303 1.222-5.14 1.222c-2.94 0-5.254-.979-6.938-2.937C.99 31 .284 28.457.557 25.339c.273-3.11 1.48-5.68 3.625-7.708 2.151-2.038 4.733-3.057 7.74-3.057 3.009 0 5.354.944 7.035 2.83 1.684 1.879 2.39 4.36 2.12 7.443" fill="#000"/><path d="M18.155 24.82c.197-2.241-.283-4.035-1.436-5.382-1.153-1.338-2.803-2.007-4.946-2.007-2.152 0-4.027.753-5.624 2.26-1.582 1.505-2.471 3.388-2.668 5.648-.196 2.232.317 4.079 1.535 5.541 1.22 1.453 2.86 2.18 4.92 2.18 2.143 0 3.995-.784 5.556-2.353 1.569-1.55 2.456-3.512 2.663-5.887zm2.921.027a12.713 12.713 0 0 1-2.335 6.365c-1.072 1.498-2.402 2.654-3.99 3.469s-3.303 1.222-5.14 1.222c-2.94 0-5.254-.979-6.938-2.937C.99 31 .284 28.457.557 25.339c.273-3.11 1.48-5.68 3.625-7.708 2.151-2.038 4.733-3.057 7.74-3.057 3.009 0 5.354.944 7.035 2.83 1.684 1.879 2.39 4.36 2.12 7.443z" stroke="#000"/><path fill="#000" d="M48.993 14.986l-3.62 17.688h5.555l-.579 2.831h-8.464l4.21-20.519z"/><path stroke="#000" d="M48.993 14.986l-3.62 17.688h5.555l-.579 2.831h-8.464l4.21-20.519z"/><path fill="#000" d="M59.1 26.321l-1.884 9.184h-2.91l1.94-9.396-4.125-11.123h3.127l2.91 8.16 5.86-8.16h3.343z"/><path stroke="#000" d="M59.1 26.321l-1.884 9.184h-2.91l1.94-9.396-4.125-11.123h3.127l2.91 8.16 5.86-8.16h3.343z"/><path fill="#000" d="M81.771 17.817L78.14 35.505h-2.91l3.632-17.688h-4.69l.578-2.831h12.087l-.578 2.83z"/><path stroke="#000" d="M81.771 17.817L78.14 35.505h-2.91l3.632-17.688h-4.69l.578-2.831h12.087l-.578 2.83z"/><path d="M103.656 24.82c.196-2.241-.282-4.035-1.435-5.382-1.154-1.338-2.803-2.007-4.947-2.007-2.153 0-4.028.753-5.625 2.26-1.581 1.505-2.47 3.388-2.668 5.648-.195 2.232.317 4.079 1.536 5.541 1.221 1.453 2.86 2.18 4.92 2.18 2.143 0 3.995-.784 5.556-2.353 1.568-1.55 2.455-3.512 2.663-5.887m2.921.027a12.703 12.703 0 0 1-2.336 6.365c-1.071 1.498-2.401 2.654-3.989 3.469-1.589.815-3.302 1.222-5.141 1.222-2.94 0-5.253-.979-6.937-2.937-1.684-1.966-2.389-4.509-2.116-7.627.272-3.11 1.479-5.68 3.623-7.708 2.152-2.038 4.733-3.057 7.741-3.057s5.354.944 7.036 2.83c1.683 1.879 2.389 4.36 2.119 7.443" fill="#000"/><path d="M103.656 24.82c.196-2.241-.282-4.035-1.435-5.382-1.154-1.338-2.803-2.007-4.947-2.007-2.153 0-4.028.753-5.625 2.26-1.581 1.505-2.47 3.388-2.668 5.648-.195 2.232.317 4.079 1.536 5.541 1.221 1.453 2.86 2.18 4.92 2.18 2.143 0 3.995-.784 5.556-2.353 1.568-1.55 2.455-3.512 2.663-5.887zm2.921.027a12.703 12.703 0 0 1-2.336 6.365c-1.071 1.498-2.401 2.654-3.989 3.469-1.589.815-3.302 1.222-5.141 1.222-2.94 0-5.253-.979-6.937-2.937-1.684-1.966-2.389-4.509-2.116-7.627.272-3.11 1.479-5.68 3.623-7.708 2.152-2.038 4.733-3.057 7.741-3.057s5.354.944 7.036 2.83c1.683 1.879 2.389 4.36 2.119 7.443z" stroke="#000"/><path d="M113.563 17.817l-1.373 6.685h1.894c1.195 0 2.14-.322 2.836-.964.696-.642 1.097-1.57 1.203-2.784.171-1.958-.937-2.937-3.328-2.937h-1.232zm-2.32-2.831h3.978c1.73 0 3.02.302 3.874.904.703.488 1.228 1.175 1.574 2.06.344.912.472 1.874.383 2.884-.129 1.47-.635 2.764-1.52 3.88-1.316 1.657-3.23 2.485-5.748 2.485h-2.148l-1.705 8.306h-2.91l4.222-20.52z" fill="#000"/><path d="M113.563 17.817l-1.373 6.685h1.894c1.195 0 2.14-.322 2.836-.964.696-.642 1.097-1.57 1.203-2.784.171-1.958-.937-2.937-3.328-2.937h-1.232zm-2.32-2.831h3.978c1.73 0 3.02.302 3.874.904.703.488 1.228 1.175 1.574 2.06.344.912.472 1.874.383 2.884-.129 1.47-.635 2.764-1.52 3.88-1.316 1.657-3.23 2.485-5.748 2.485h-2.148l-1.705 8.306h-2.91l4.222-20.52z" stroke="#000"/><path fill="#000" d="M46.848 8.553l-2.9-.5-1.55 6.93-.89 3.96-3.7 16.42-9.89-13.1-3.49 13.24h-2.91l4.45-20.59 10.52 13.79 2.3-10.22.72-3.5 1.57-7.57-2.76-.54 5.97-6.86z"/><path stroke="#000" d="M46.848 8.553l-2.9-.5-1.55 6.93-.89 3.96-3.7 16.42-9.89-13.1-3.49 13.24h-2.91l4.45-20.59 10.52 13.79 2.3-10.22.72-3.5 1.57-7.57-2.76-.54 5.97-6.86z"/></g></svg>