<svg xmlns="http://www.w3.org/2000/svg" xmlns:xlink="http://www.w3.org/1999/xlink" width="117" height="71" fill="#d1504a"><defs><path id="a" d="M179.02 1831.18c33.8-13.54 92.13-19.16 97.64-14.65 5.51 4.5-6.5 8.12-7.86 19.61-1.36 11.5 25.6 18.04 3.4 18.04-22.22 0-84.8 27.2-93.18 20.86-8.38-6.34 0-9.37 0-20.86 0-11.5-33.8-9.47 0-23z"/><path id="b" d="M200.32 1823.64v-4.43c0-7.02 5.62-12.74 12.53-12.74h24.18c6.9 0 12.53 5.72 12.53 12.74v4.43zm49.23 33.9v.94a4.02 4.02 0 0 1-3.98 4.05H204.3a4.02 4.02 0 0 1-3.99-4.05v-.93zm-38.44-27.94v-.05c0-1.18-.94-2.13-2.09-2.13h-4.4v-2.32h11.52v4.5zm4.3 21.72c-1.92-1.15-3.07-2.18-3.07-4 0-.8.3-1.02.4-1.1.41-.3 1.17-.24 1.67-.14.06 1.49.32 3.36 1 5.24zm13.64 4.75h-8.17c-5.16-3.37-5.13-10.1-4.99-12.19h18.15c.16 2.07.23 8.76-5 12.2zm-11.48-21.45v-9.52h14.03v9.52a2.42 2.42 0 0 1-2.4 2.44h-9.23c-1.32 0-2.4-1.1-2.4-2.44zm2.4 3.91h9.22a3.89 3.89 0 0 0 3.85-3.91v-9.52h11.75v30.97h-13.37c5.2-4.84 4.04-12.68 3.99-13.04a.73.73 0 0 0-.72-.62h-19.46a.73.73 0 0 0-.71.62c-.02.1-.1.67-.12 1.55-.72-.1-1.74-.12-2.52.45-.45.34-1 1-1 2.29 0 3.24 2.7 4.7 5.3 6.12l.35.18c.52.87 1.18 1.7 1.98 2.45h-13.89v-22.82h4.4a2.1 2.1 0 0 0 2.09-2.12v-.06h5.01v3.55a3.89 3.89 0 0 0 3.85 3.91zm-24.88-6.75a.65.65 0 0 1-.64-.65v-1.58c0-.36.29-.65.64-.65h13.93c.35 0 .64.29.64.65v1.58c0 .36-.3.65-.64.65zm55.18-6.68c.4 0 .73-.33.73-.74v-5.16a14.1 14.1 0 0 0-13.97-14.2h-24.18a14.1 14.1 0 0 0-13.98 14.2v5.16c0 .41.33.74.73.74h3.57v2.32h-8.08a2.1 2.1 0 0 0-2.09 2.13v1.58a2.1 2.1 0 0 0 2.09 2.12h8.08v22.82h-3.57c-.4 0-.73.33-.73.74v1.67a5.48 5.48 0 0 0 5.44 5.52h41.26c3 0 5.43-2.48 5.43-5.52v-1.67c0-.4-.32-.74-.72-.74h-4.04v-30.97z"/><path id="c" d="M233.5 1816.64c-.62 0-1.12-.51-1.12-1.13 0-.63.5-1.14 1.12-1.14.61 0 1.11.51 1.11 1.14 0 .62-.5 1.13-1.11 1.13zm0-3.64a2.5 2.5 0 1 0 0 5 2.5 2.5 0 0 0 0-5z"/><path id="d" d="M224.5 1816.64c-.62 0-1.12-.51-1.12-1.13 0-.63.5-1.14 1.12-1.14.61 0 1.11.51 1.11 1.14 0 .62-.5 1.13-1.11 1.13zm0-3.64a2.5 2.5 0 1 0 0 5 2.5 2.5 0 0 0 0-5z"/><path id="e" d="M215.5 1816.64c-.62 0-1.12-.51-1.12-1.13 0-.63.5-1.14 1.12-1.14.61 0 1.11.51 1.11 1.14 0 .62-.5 1.13-1.11 1.13zm0-3.64a2.5 2.5 0 1 0 0 5 2.5 2.5 0 0 0 0-5z"/></defs><use fill="#ddd8d7" xlink:href="#a" opacity=".28" transform="translate(-164 -1805)"/><use xlink:href="#b" transform="translate(-164 -1805)"/><use xlink:href="#c" transform="translate(-164 -1805)"/><use xlink:href="#d" transform="translate(-164 -1805)"/><use xlink:href="#e" transform="translate(-164 -1805)"/></svg>