<svg xmlns="http://www.w3.org/2000/svg" xmlns:xlink="http://www.w3.org/1999/xlink" width="117" height="61" fill="#d1504a"><defs><path id="a" d="M928.02 1831.18c33.8-13.54 92.13-19.16 97.64-14.65 5.51 4.5-6.5 8.12-7.86 19.61-1.36 11.5 25.6 18.04 3.4 18.04-22.22 0-84.8 27.2-93.18 20.86-8.38-6.34 0-9.37 0-20.86 0-11.5-33.8-9.47 0-23z"/><path id="b" d="M949.18 1835.19h38.27v3.2c0 2.07-.22 4.1-.61 6.04h-37.05c-.4-1.94-.6-3.97-.6-6.03zm40.22 6.98h1.1a4.33 4.33 0 0 1 0 8.66h-3.31a31.55 31.55 0 0 0 2.2-8.66zm-15.46 19.64h-11.26c-5.82-2.32-10.34-8.09-12.35-15.18h35.96c-2.01 7.1-6.53 12.86-12.35 15.18zM947 1834.09v4.3c0 11.82 6.06 22.08 15.09 25.54.12.04.25.07.39.07h11.66c.13 0 .27-.02.4-.07 4.92-1.9 8.95-5.82 11.61-10.9h4.35a6.52 6.52 0 0 0 0-13.05h-.93c.02-.53.05-1.05.05-1.58v-4.3c0-.6-.49-1.1-1.1-1.1H948.1c-.6 0-1.09.49-1.09 1.1z"/><path id="c" d="M967 1831a1.2 1.2 0 0 0 1.19-1.22 1.2 1.2 0 0 0-1.19-1.23c-.9 0-1.62-.74-1.62-1.66 0-.92.73-1.67 1.62-1.67 2.2 0 4-1.84 4-4.1 0-2.27-1.8-4.12-4-4.12a1.2 1.2 0 0 0-1.19 1.22c0 .68.53 1.23 1.19 1.23.9 0 1.62.74 1.62 1.66 0 .92-.73 1.67-1.62 1.67-2.2 0-4 1.84-4 4.1 0 2.28 1.8 4.12 4 4.12z"/><path id="d" d="M975 1822.78c-2.2 0-4 1.84-4 4.1 0 2.27 1.8 4.12 4 4.12a1.2 1.2 0 0 0 1.19-1.22 1.2 1.2 0 0 0-1.19-1.23c-.9 0-1.62-.74-1.62-1.66 0-.92.73-1.67 1.62-1.67 2.2 0 4-1.84 4-4.1 0-2.27-1.8-4.12-4-4.12a1.2 1.2 0 0 0-1.19 1.22c0 .68.53 1.23 1.19 1.23.9 0 1.62.74 1.62 1.66 0 .92-.73 1.67-1.62 1.67z"/></defs><use fill="#ddd8d7" xlink:href="#a" opacity=".28" transform="translate(-913 -1815)"/><use xlink:href="#b" transform="translate(-913 -1815)"/><use xlink:href="#c" transform="translate(-913 -1815)"/><use xlink:href="#d" transform="translate(-913 -1815)"/></svg>