<svg xmlns="http://www.w3.org/2000/svg" xmlns:xlink="http://www.w3.org/1999/xlink" width="117" height="72" fill="#d1504a"><defs><path id="a" d="M547.02 1831.18c33.8-13.54 92.13-19.16 97.64-14.65 5.51 4.5-6.5 8.12-7.86 19.61-1.36 11.5 25.6 18.04 3.4 18.04-22.22 0-84.8 27.2-93.18 20.86-8.38-6.34 0-9.37 0-20.86 0-11.5-33.8-9.47 0-23z"/><path id="b" d="M618.4 1856.38a20.74 20.74 0 0 1-14.77 6.12 20.74 20.74 0 0 1-14.77-6.12 20.76 20.76 0 0 1-6.11-14.77c0-5.58 2.17-10.83 6.11-14.77a20.74 20.74 0 0 1 14.77-6.12c5.58 0 10.82 2.17 14.76 6.12a20.92 20.92 0 0 1 0 29.54zm-33.46-31.61a5.83 5.83 0 0 0 1.81-1.82l1.97 1.96a22.85 22.85 0 0 0-1.82 1.82zm-6.15-1.87l-10.03-10.03a4.32 4.32 0 0 1 6.1-6.1l10.03 10.02a4.32 4.32 0 0 1-6.1 6.11zm40.67 2.87a22.23 22.23 0 0 0-15.83-6.55 22.2 22.2 0 0 0-13.76 4.73l-2.45-2.46c.58-1.98.09-4.2-1.47-5.76l-10.02-10.03a5.78 5.78 0 0 0-8.23 0 5.83 5.83 0 0 0 0 8.24l10.02 10.02a5.8 5.8 0 0 0 5.76 1.47l2.46 2.46a22.22 22.22 0 0 0-4.7 13.72c0 5.98 2.33 11.6 6.56 15.83a22.23 22.23 0 0 0 15.83 6.56c5.98 0 11.6-2.33 15.83-6.56a22.43 22.43 0 0 0 0-31.67z"/><path id="c" d="M572.9 1810.9a1.3 1.3 0 0 1-1.82-1.82 1.29 1.29 0 0 1 1.83 0c.5.5.5 1.32 0 1.83zm-3.02-3.02a3 3 0 1 0 4.25 4.24 3 3 0 0 0-4.25-4.24z"/><path id="d" d="M615.67 1853.67a16.4 16.4 0 0 1-11.67 4.84 16.52 16.52 0 0 1 0-33c4.4 0 8.55 1.71 11.67 4.83a16.39 16.39 0 0 1 4.84 11.66c0 4.41-1.72 8.56-4.84 11.67zm1.06-24.4A17.89 17.89 0 0 0 604 1824a18.02 18.02 0 0 0 0 36c4.8 0 9.33-1.87 12.73-5.27 3.4-3.4 5.27-7.92 5.27-12.73 0-4.8-1.87-9.33-5.27-12.73z"/><path id="e" d="M600.33 1832.94a1.7 1.7 0 0 1-1.85-.67 7.9 7.9 0 0 1-.49-8.44 7.27 7.27 0 0 1 8.33-3.56c.38.1.65.44.68.85.03.4-.18.77-.54.93-.16.08-.34.15-.51.21-.93.32-1.7.97-2.19 1.84-.48.87-.64 1.9-.44 2.88.26 1.3.05 2.63-.58 3.77a5.22 5.22 0 0 1-2.05 2.05c-.12.06-.24.1-.36.14zm2.46-11.48a6.21 6.21 0 0 0-3.76 2.99 6.6 6.6 0 0 0 .41 7.06c.16.22.45.3.68.17a4 4 0 0 0 1.58-1.57c.48-.87.64-1.89.44-2.88a5.51 5.51 0 0 1 .59-3.76 5.2 5.2 0 0 1 2.33-2.18 5.93 5.93 0 0 0-2.27.17z"/><path id="f" d="M603.7 1834.75a7.1 7.1 0 0 1-2.95.17.89.89 0 0 1-.74-.76.9.9 0 0 1 .5-.95c.2-.1.3-.15.33-.18a3.95 3.95 0 0 0 1.66-4.06 5.16 5.16 0 0 1 .56-3.58 5.02 5.02 0 0 1 2.77-2.28l.03-.01a1.7 1.7 0 0 1 2 .68 7.37 7.37 0 0 1 .17 7.57 7.16 7.16 0 0 1-4.34 3.4zm-1.92-.95a5.94 5.94 0 0 0 5.23-3.05 6.17 6.17 0 0 0-.13-6.33c-.13-.2-.4-.29-.65-.2l-.04.02c-.9.3-1.65.92-2.12 1.74-.47.83-.62 1.8-.43 2.75a5.16 5.16 0 0 1-1.86 5.07z"/></defs><use fill="#ddd8d7" xlink:href="#a" opacity=".28" transform="translate(-532 -1804)"/><use xlink:href="#b" transform="rotate(-90 -572 1198)"/><use xlink:href="#c" transform="rotate(-90 -572 1198)"/><use xlink:href="#d" transform="rotate(-90 -572 1198)"/><use xlink:href="#e" transform="translate(-532 -1804)"/><use xlink:href="#f" transform="translate(-532 -1804)"/></svg>