<svg width="117" height="73" xmlns="http://www.w3.org/2000/svg"><g fill="none" fill-rule="evenodd"><path d="M15.024 28.176c33.805-13.533 92.129-19.152 97.638-14.647 5.508 4.504-6.493 8.117-7.858 19.612-1.364 11.494 25.598 18.036 3.389 18.036S23.405 78.381 15.024 72.042c-8.38-6.338 0-9.368 0-20.865 0-11.496-33.804-9.469 0-23.001z" fill="#DDD8D7" fill-rule="nonzero" opacity=".15"/><rect x=".75" y=".75" width="35.5" height="71.5" rx="3" transform="translate(38)" stroke="#D4504B" stroke-width="1.5"/><g fill="#D4504B" fill-rule="nonzero"><path d="M69 45.835c-.009.069-.022.137-.026.206-.078 1.248-.78 2.39-1.898 3.093a4.656 4.656 0 0 1-3.811.492.154.154 0 0 0-.11-.01.142.142 0 0 0-.086.064 7.369 7.369 0 0 1-1.66 1.517.126.126 0 0 0-.058.157c.067.327.068.664.002.992-.087.406-.47.654-.959.654h-6.27c-.341-.001-.683 0-1.023-.022-.388-.04-.697-.317-.75-.674a6.656 6.656 0 0 1 0-.89.15.15 0 0 0-.08-.16c-1.703-1.116-2.85-2.817-3.185-4.721a8.893 8.893 0 0 1-.047-.312c-.014-.1-.025-.2-.039-.318l.434-.06c.285-.035.57-.066.855-.104.098-.013.144.007.175.105.699 2.241 2.257 3.692 4.695 4.315a6.439 6.439 0 0 0 2.174.146c2.78-.267 5.062-2.153 5.657-4.677.11-.448.16-.905.149-1.364a.106.106 0 0 1 .066-.08c.453-.06.907-.114 1.36-.17.02.001.038.003.057.007v.115c0 .438.007.876-.002 1.314a6.761 6.761 0 0 1-.7 2.907c-.018.037-.034.075-.063.139.223.028.427.068.632.077 1.512.065 2.67-.9 2.943-2.22a1.98 1.98 0 0 0-.38-1.685 8.833 8.833 0 0 0-.992-1.067c-.135-.127-.272-.251-.426-.394.12-.014.215-.026.31-.036.519-.055 1.038-.108 1.556-.165a.248.248 0 0 1 .252.09c.382.436.703.914.956 1.424.169.361.261.748.272 1.14.003.038.01.076.02.112v.063zM57.54 33.838l.701-.2.4 4.137c.008-.075.019-.151.026-.228l.127-1.326a224.108 224.108 0 0 1 .263-2.55c-.032-.232.087-.33.293-.352a.373.373 0 0 0 .063-.017c.238-.07.24-.07.267.186.073.69.149 1.38.217 2.07.065.647.121 1.294.182 1.94.005.015.011.03.019.043.01-.125.016-.229.025-.332l.2-2.288.157-1.819c.006-.07.024-.115.101-.135.196-.05.39-.11.612-.173l-.66 6.667c.119-.014.224-.025.33-.039.222-.029.445-.061.668-.087.062-.007.082-.034.08-.092-.002-.038 0-.075 0-.113 0-2.103 0-4.207-.003-6.31 0-.115.029-.165.141-.187.152-.03.3-.084.467-.132l1.108 4.055.02-.005c-.005-.128-.016-.256-.016-.385-.001-1.28 0-2.56-.003-3.84 0-.108.027-.16.135-.183.176-.04.348-.096.538-.15v.136c0 3.578 0 7.156.002 10.734 0 .118-.03.153-.147.168-.816.103-1.631.219-2.447.327-.87.116-1.74.227-2.609.343-.87.116-1.738.237-2.608.353-.758.101-1.517.197-2.275.298-.7.094-1.4.191-2.101.285-.59.079-1.179.153-1.768.231-.306.04-.611.082-.916.128-.095.015-.127-.01-.127-.113.002-2.83.002-5.66 0-8.49a.13.13 0 0 1 .022-.097.122.122 0 0 1 .085-.05c.587-.164 1.172-.336 1.759-.502.278-.078.418.032.42.331.002.468.001.936-.001 1.404a.614.614 0 0 1-.214.484c-.1.085-.195.176-.307.278.108.054.2.104.295.146a.405.405 0 0 1 .247.4c.004.55.003 1.1 0 1.65-.005.076-.015.15-.03.225.194-.026.38-.049.564-.077.018-.003.037-.042.042-.066a.568.568 0 0 0 .003-.112c0-1.606 0-3.212-.002-4.817a.15.15 0 0 1 .026-.116.142.142 0 0 1 .101-.058c.578-.16 1.153-.327 1.729-.49a.643.643 0 0 1 .128-.024.242.242 0 0 1 .201.05.258.258 0 0 1 .094.19c.007.048.01.097.01.146v2.156c0 .06-.005.12-.016.178a.451.451 0 0 1-.355.367l-.285.073c.059.19.113.37.17.55.166.52.335 1.041.496 1.564a.117.117 0 0 0 .053.084.11.11 0 0 0 .096.011c.143-.024.287-.042.436-.063-.007-.1-.021-.19-.021-.283a2506.77 2506.77 0 0 1-.001-4.75c0-.393.132-.574.496-.68.265-.078.53-.153.817-.235a.99.99 0 0 0-.097-.102c-.336-.256-.67-.516-1.01-.765a9.556 9.556 0 0 1-1.57-1.349 5.271 5.271 0 0 1-1.256-2.688c-.268-1.626.117-3.08 1.073-4.388a12.725 12.725 0 0 1 1.762-1.938c.615-.555 1.241-1.095 1.865-1.638.426-.365.772-.82 1.014-1.333.006-.013.015-.024.036-.059a3.512 3.512 0 0 1-.537 1.266c-.387.575-.816 1.12-1.281 1.63a21.766 21.766 0 0 0-1.718 2.132 5.757 5.757 0 0 0-.914 1.994 3.488 3.488 0 0 0 .65 2.988c.384.497.81.96 1.226 1.429.45.504.922.987 1.294 1.559.287.416.467.901.523 1.408.015.163-.002.329-.002.493v5.006c.167-.02.346-.041.524-.064.147-.018.294-.046.442-.057.085-.007.116-.035.105-.123a189.59 189.59 0 0 1-.122-1.056c-.04-.356-.077-.713-.117-1.069l-.144-1.28-.137-1.223c-.044-.392-.085-.785-.13-1.195zm-2.092 5.78a.96.96 0 0 0 .125 0c.24-.034.48-.079.72-.101.113-.01.135-.051.135-.158a1192.98 1192.98 0 0 1-.002-4.287v-.138l-.104.02c-.25.066-.497.136-.748.194-.105.024-.138.07-.137.18.003 1.385.004 2.769.002 4.153 0 .044.006.088.009.138zm-1.964-3.912c-.272.07-.53.141-.79.203a.132.132 0 0 0-.094.053.14.14 0 0 0-.025.108c.003 1.429.003 2.858.002 4.288 0 .04.004.08.007.12a.286.286 0 0 0 .053.006l.722-.094c.137-.018.139-.02.096-.154l-.462-1.458c-.106-.332-.238-.658-.2-1.022.01-.079.031-.114.103-.127.156-.03.312-.068.469-.094.095-.015.133-.054.132-.16-.005-.512-.002-1.025-.003-1.537 0-.04-.006-.08-.01-.132zm4.42 5.412l-.032-.038a.261.261 0 0 0-.348-.084c-.113.057-.15.156-.112.314.027.085.05.171.067.259.04.336.07.674.112 1.011a.794.794 0 0 0 .15.448c.138.16.403.126.453-.067a.632.632 0 0 0-.042-.265 1.64 1.64 0 0 0-.061-.174h.113a.957.957 0 0 0 .955-.839.718.718 0 0 0-.181-.613.672.672 0 0 0-.588-.208.753.753 0 0 0-.486.256zm4.38-5.888l-.026.005c.006.077.018.154.018.231l.003 2.434c0 .408.001.815-.001 1.223 0 .084.013.122.11.103.142-.028.288-.035.432-.054.156-.02.312-.044.482-.068l-1.017-3.874zm-5.462 7.37a.52.52 0 0 0 .064.044.294.294 0 0 0 .32-.021.215.215 0 0 0 .08-.268c-.091-.215-.078-.446-.123-.668a2.244 2.244 0 0 0-.14-.477.262.262 0 0 0-.165-.132.254.254 0 0 0-.205.035c-.122.057-.155.143-.113.308.023.09.058.177.08.267.034.12.059.245.075.37a.245.245 0 0 1-.188.285.281.281 0 0 1-.344-.144.572.572 0 0 1-.026-.413c.032-.122.054-.246.068-.371a.199.199 0 0 0-.158-.213.332.332 0 0 0-.261.046.35.35 0 0 0-.15.225c-.101.334-.054.696.13.99a.598.598 0 0 0 .46.303c.213.03.428-.03.596-.166zm2.556-6.85l-.426 3.902c.016.006.032.01.048.011l.711-.089c.072-.008.076-.054.069-.112a16.419 16.419 0 0 1-.04-.31 920.8 920.8 0 0 1-.16-1.423c-.056-.497-.115-.993-.17-1.49-.016-.153-.02-.308-.032-.489zm-9.682 4.702c.298-.04.578-.075.856-.121.027-.005.062-.076.063-.117.004-.423.003-.845.002-1.268 0-.033.002-.085-.016-.095-.132-.08-.252-.2-.42-.179-.13.016-.255.056-.384.073-.085.012-.103.051-.102.132.003.453.001.905.001 1.358v.217zm5.08.903a1.036 1.036 0 0 0-.621.2.818.818 0 0 0 .148 1.36.959.959 0 0 0 .851-.044.516.516 0 0 0 .297-.39.189.189 0 0 0-.108-.212.283.283 0 0 0-.36.12c-.062.144-.171.155-.296.146a.278.278 0 0 1-.285-.2 1.13 1.13 0 0 1-.025-.35.264.264 0 0 1 .199-.228.344.344 0 0 1 .37.086.28.28 0 0 0 .368-.027c.066-.08.044-.18-.067-.293a.625.625 0 0 0-.47-.168zm6.308.76a.635.635 0 0 0 .433.132 1.572 1.572 0 0 0 1.309-1.193.637.637 0 0 0-.114-.566c-.01 0-.019 0-.028.002a.22.22 0 0 0-.038.02 2.399 2.399 0 0 0-.803.821 1.904 1.904 0 0 1-.504.582l-.255.203zm-10.956-.081a.608.608 0 0 0-.069.467 1.57 1.57 0 0 0 1.28 1.183.653.653 0 0 0 .57-.191.478.478 0 0 0-.037-.062 2.36 2.36 0 0 0-.874-.705 1.844 1.844 0 0 1-.63-.432c-.078-.083-.154-.167-.24-.26zm-.432-3.871h.06c.301-.043.593-.11.78-.392a.318.318 0 0 0 .063-.154c.005-.344.003-.688.002-1.032 0-.036-.004-.072-.006-.11a.167.167 0 0 0-.05-.006c-.264.068-.527.134-.788.21a.127.127 0 0 0-.058.097c-.006.172-.003.344-.003.516v.87zm2.328 5.169a.673.673 0 0 0 .05-.492 1.587 1.587 0 0 0-1.25-1.137.656.656 0 0 0-.591.189.335.335 0 0 0 .03.052c.221.268.493.487.8.643.204.104.398.228.578.372.135.116.263.24.383.373zm8.939-1.34c.297-.179.549-.427.734-.725.194-.34.463-.628.785-.841.032-.023.062-.048.102-.078a.612.612 0 0 0-.441-.127 1.583 1.583 0 0 0-1.299 1.151.68.68 0 0 0 .119.62zM49 46.728L47.005 47c.018-.06.028-.099.041-.135.27-.74.54-1.48.813-2.219a.318.318 0 0 0-.003-.256 314.71 314.71 0 0 1-.802-1.98c-.016-.037-.03-.076-.054-.138L49 42v4.728zM66.002 43v-.165c0-1.47.002-2.939-.002-4.408 0-.132.031-.166.135-.178.422-.05.842-.116 1.262-.174.196-.027.391-.049.603-.075l-.236.654c-.206.565-.41 1.13-.62 1.694a.331.331 0 0 0 .003.268c.27.657.536 1.318.804 1.978l.049.133-1.998.273z"/><path d="M58 25.015a5.093 5.093 0 0 1-.16.506c-.175.407-.359.806-.547 1.202a9.12 9.12 0 0 0-.64 1.598c-.26.98-.198 1.912.22 2.784.199.413.41.814.612 1.224.136.263.232.562.282.879.04.242.026.495-.037.727-.008.028-.036.068-.05.065-.03-.007-.076-.033-.082-.063-.08-.436-.29-.739-.512-1.035-.173-.23-.347-.461-.506-.71-.31-.49-.502-1.105-.552-1.756a5.558 5.558 0 0 1 .709-3.337c.292-.55.614-1.067.962-1.549.125-.146.222-.336.28-.55l.021.015zM59.334 43c-.267 0-.28-.01-.302-.246-.01-.114-.028-.228-.032-.342-.009-.192.145-.36.36-.394.22-.058.458.03.567.21.219.389-.075.772-.593.772z"/></g></g></svg>