<svg xmlns="http://www.w3.org/2000/svg" xmlns:xlink="http://www.w3.org/1999/xlink" width="117" height="78" viewBox="0 0 117 78" fill="#d1504a"><defs><path id="u4roa" d="M179.02 2198.18c33.8-13.54 92.13-19.16 97.64-14.65 5.51 4.5-6.5 8.12-7.86 19.61-1.36 11.5 25.6 18.04 3.4 18.04-22.22 0-84.8 27.2-93.18 20.86-8.38-6.34 0-9.37 0-20.86 0-11.5-33.8-9.47 0-23z"/><path id="u4rob" d="M216.27 2219h-1.54c-.4 0-.73.45-.73 1s.33 1 .73 1h1.54c.4 0 .73-.45.73-1s-.33-1-.73-1z"/><path id="u4roc" d="M224.27 2219h-1.54c-.4 0-.73.45-.73 1s.33 1 .73 1h1.54c.4 0 .73-.45.73-1s-.33-1-.73-1z"/><path id="u4rod" d="M216.27 2225h-1.54c-.4 0-.73.45-.73 1s.33 1 .73 1h1.54c.4 0 .73-.45.73-1s-.33-1-.73-1z"/><path id="u4roe" d="M224.27 2225h-1.54c-.4 0-.73.45-.73 1s.33 1 .73 1h1.54c.4 0 .73-.45.73-1s-.33-1-.73-1z"/><path id="u4rof" d="M243.3 2229.05h-33.17v-11.16l16.36-10.4.6 2.7c.1.44.44.74.82.74h2.95c6.86 0 12.43 6.41 12.43 14.29zm-34.87-11.74v11.74H192.7v-3.83c0-7.88 5.58-14.29 12.43-14.29h2.95c.39 0 .73-.3.83-.73l.6-2.7 6.73 4.27-7.37 4.69c-.27.17-.44.5-.44.85zm-4.37-16.27a19.5 19.5 0 0 0 2.5-5.25 14.35 14.35 0 0 0 4.4 5.04v1.5c-3.17.05-5.59-.73-6.9-1.3zm19.11.72v5.6l-5.18 3.3a.9.9 0 0 0-.1-.07l-5.22-3.32v-5.43c.34.17.7.32 1.06.46a14.2 14.2 0 0 0 8.25 0c.41-.16.8-.34 1.2-.54zm-3.19-20.65c1.25 1.88 4.26 5.46 9.38 6.24l.02.52c0 5.72-3.18 10.77-7.87 12.55-3.88 1.18-7.24.02-7.26.02-4.58-1.74-7.7-6.51-7.9-12 2.16-.27 10.05-1.62 13.63-7.33zm-9.52-2.57c1.66-1.82 4.34-3.66 7.63-3.4 3.28.27 3.61-.62.72 4.48-2.9 5.1-10.1 6.52-12.4 6.85.23-2.5 2.4-6.12 4.05-7.93zm18.7 6.8c-4.6-.87-6.92-3.02-7.74-4.83-.81-1.82-.07-3.34 1.44-3.68 1.51-.34 3.12 2.79 3.98 2.79a14.2 14.2 0 0 1 2.32 5.72zm2.68 15.7a16.97 16.97 0 0 1-6.95 1.3v-1.6c1.81-1.3 3.3-3.09 4.37-5.18a20.04 20.04 0 0 0 2.58 5.48zm-.98 7.94h-2.28l-.71-3.2a.95.95 0 0 0-.49-.65.75.75 0 0 0-.75.04l-1.74 1.1v-1.97h.35c5.18 0 8.4-2.02 8.54-2.1a1 1 0 0 0 .44-.82c.01-.34-.13-.66-.37-.85-1.7-1.35-3.13-5.9-3.54-7.53.5-1.62.78-3.35.78-5.13 0-3.35-.99-6.6-2.76-9.25l-9.6-13.16-11.02 12.69a16.61 16.61 0 0 0-3.08 9.72c0 1.9.31 3.73.88 5.43-.48 1.83-1.84 5.95-3.46 7.23-.24.2-.38.51-.37.85a1 1 0 0 0 .44.81c.14.1 3.36 2.12 8.54 2.12l.3-.01v1.88l-1.6-1.01a.76.76 0 0 0-.74-.04.95.95 0 0 0-.49.65l-.7 3.2h-2.3c-7.79 0-14.13 7.28-14.13 16.24v4.8c0 .54.38.98.85.98h52.3c.47 0 .85-.44.85-.98v-4.8c0-8.96-6.34-16.24-14.14-16.24z"/></defs><g><g opacity=".28" transform="translate(-164 -2165)"><use fill="#ddd8d7" xlink:href="#u4roa"/></g><g transform="translate(-164 -2165)"><g><use xlink:href="#u4rob"/></g><g><use xlink:href="#u4roc"/></g><g><use xlink:href="#u4rod"/></g><g><use xlink:href="#u4roe"/></g><g><use xlink:href="#u4rof"/></g></g></g></svg>