<svg xmlns="http://www.w3.org/2000/svg" xmlns:xlink="http://www.w3.org/1999/xlink" width="117" height="72" viewBox="0 0 117 72" fill="#d1504a"><defs><path id="pg05a" d="M547.02 2198.18c33.8-13.54 92.13-19.16 97.64-14.65 5.51 4.5-6.5 8.12-7.86 19.61-1.36 11.5 25.6 18.04 3.4 18.04-22.22 0-84.8 27.2-93.18 20.86-8.38-6.34 0-9.37 0-20.86 0-11.5-33.8-9.47 0-23z"/><path id="pg05b" d="M625.5 2229.5h-57v-2.28h57zm-46.78-12.43v8.65h-3.62l-.02-7.19a7.25 7.25 0 0 0 3.64-1.46zm-10.22-5.79a5.8 5.8 0 1 1 11.61.01 5.8 5.8 0 0 1-11.61 0zm11.72-11.02v-24h33.53v24zm0 6.77v-.92h8.72v19.61h-8.72v-10.2a7.25 7.25 0 0 0 0-8.49zm0-5.27h33.53v2.85h-33.53zm33.53 23.96h-23.31v-6.7h23.31zm0-10.24v2.04h-23.31v-11.41h23.31v.96a7.25 7.25 0 0 0 0 8.41zm-35-42.98h36.2v2.26h-36.2zm40.25 53.21h-3.75v-8.66a7.26 7.26 0 0 0 3.74 1.49zm.7-20.23a5.8 5.8 0 1 1-.01 11.61 5.8 5.8 0 0 1 .01-11.6zm6.55 20.24h-5.75l-.01-7.19a7.3 7.3 0 0 0-.79-14.55c-1.67 0-3.22.58-4.45 1.53v-29.25h.45c.41 0 .75-.34.75-.75v-3.76a.75.75 0 0 0-.75-.75H578a.75.75 0 0 0-.75.75v3.76c0 .41.34.75.75.75h.72v29.23a7.3 7.3 0 1 0-5.14 13.05l.02 7.18h-5.85a.75.75 0 0 0-.75.75v3.78c0 .41.34.75.75.75h58.5c.41 0 .75-.34.75-.75v-3.78a.75.75 0 0 0-.75-.75z"/><path id="pg05c" d="M583 2219c.55 0 1-.3 1-.68v-.64c0-.37-.45-.68-1-.68s-1 .3-1 .68v.64c0 .38.45.68 1 .68z"/><path id="pg05d" d="M610.76 2214.21l-1.55 1.55a.73.73 0 1 0 1.03 1.03l1.55-1.55a.73.73 0 1 0-1.03-1.03z"/><path id="pg05e" d="M609.8 2210.2a.71.71 0 0 0-1.01 0l-3.58 3.59a.71.71 0 1 0 1 1l3.58-3.58a.71.71 0 0 0 0-1z"/><path id="pg05f" d="M606.47 2183.75c0 .9-.09 1.78-.26 2.62h-17.8c-.17-.84-.26-1.72-.26-2.62v-1.29h18.32zm-6.44 10.79h-5.44c-2.7-1.04-4.8-3.57-5.8-6.7h17.05c-1 3.13-3.1 5.66-5.8 6.7zm-13.62-5.16c-1.04 0-1.89-.82-1.89-1.82s.85-1.82 1.9-1.82h.33c.17 1.28.5 2.5.97 3.64zm20.83-8.38H587.4a.75.75 0 0 0-.77.73v2.02l.02.53h-.23a3.35 3.35 0 0 0-3.41 3.28c0 1.8 1.53 3.28 3.41 3.28h2.01a11.06 11.06 0 0 0 5.76 5.11.8.8 0 0 0 .27.05h5.73c.09 0 .18-.02.27-.05 4.51-1.66 7.55-6.56 7.55-12.2v-2.02c0-.4-.34-.73-.76-.73z"/></defs><g><g opacity=".28" transform="translate(-532 -2171)"><use fill="#ddd8d7" xlink:href="#pg05a"/></g><g transform="translate(-532 -2171)"><g><use xlink:href="#pg05b"/></g><g><use xlink:href="#pg05c"/></g><g><use xlink:href="#pg05d"/></g><g><use xlink:href="#pg05e"/></g><g><use xlink:href="#pg05f"/></g></g></g></svg>