<?xml version="1.0" standalone="no"?>
<!DOCTYPE svg PUBLIC "-//W3C//DTD SVG 20010904//EN"
 "http://www.w3.org/TR/2001/REC-SVG-20010904/DTD/svg10.dtd">
<svg version="1.0" xmlns="http://www.w3.org/2000/svg"
 width="1661.000000pt" height="1661.000000pt" viewBox="0 0 1661.000000 1661.000000"
 preserveAspectRatio="xMidYMid meet">
<metadata>
Created by potrace 1.11, written by Peter Selinger 2001-2013
</metadata>
<g transform="translate(0.000000,1661.000000) scale(0.100000,-0.100000)"
fill="#000000" stroke="none">
<path d="M7890 16424 c-25 -2 -112 -9 -195 -14 -715 -50 -1486 -215 -2170
-465 -1398 -511 -2633 -1397 -3560 -2555 -381 -475 -675 -936 -943 -1478 -471
-950 -729 -1888 -824 -2997 -17 -202 -17 -1018 0 -1220 96 -1119 359 -2068
839 -3030 393 -785 891 -1475 1522 -2106 641 -641 1333 -1138 2139 -1537 950
-471 1888 -729 2997 -824 202 -17 1018 -17 1220 0 1109 95 2047 353 2997 824
806 399 1498 896 2139 1537 631 631 1129 1321 1522 2106 480 962 743 1911 839
3030 17 202 17 1018 0 1220 -95 1109 -353 2047 -824 2997 -399 806 -896 1498
-1537 2139 -631 631 -1321 1129 -2106 1522 -956 477 -1893 738 -3010 838 -116
10 -953 21 -1045 13z m664 -2739 c-51 -198 -211 -438 -543 -814 -337 -382
-461 -535 -585 -721 -238 -356 -336 -695 -292 -1003 43 -300 155 -488 527
-886 446 -478 553 -620 627 -837 42 -122 43 -154 40 -1052 l-3 -862 25 0 c47
1 310 37 317 43 6 6 -30 347 -122 1157 -19 168 -44 388 -55 490 -12 102 -23
190 -25 197 -2 6 10 16 28 22 71 22 189 52 192 49 5 -6 115 -1132 116 -1188 1
-30 5 -68 8 -85 6 -24 9 -13 15 50 8 89 50 505 66 660 50 484 61 584 65 612 6
34 4 33 165 79 13 3 20 -35 43 -258 16 -145 32 -299 38 -343 26 -224 61 -570
68 -659 7 -96 7 -98 13 -46 4 30 21 217 38 415 17 198 35 403 40 455 5 52 17
176 25 275 23 269 7 237 132 273 59 17 108 30 109 29 1 -1 -3 -40 -7 -87 -5
-47 -13 -130 -19 -185 -5 -55 -41 -415 -80 -800 -39 -385 -75 -745 -80 -800
-6 -55 -13 -128 -16 -163 -7 -63 -7 -63 17 -58 13 3 80 13 149 21 69 8 135 18
148 20 l22 5 0 1044 0 1043 97 26 c54 14 98 25 99 24 0 -1 33 -119 72 -262
192 -695 275 -991 281 -1002 3 -6 5 298 3 677 l-3 689 58 17 c32 8 79 22 106
29 l47 14 0 -1728 0 -1728 -167 -22 c-93 -12 -251 -33 -353 -47 -278 -36 -631
-83 -760 -99 -63 -9 -162 -22 -220 -30 -58 -8 -231 -30 -385 -50 -154 -20
-361 -47 -460 -60 -192 -26 -449 -60 -765 -100 -107 -14 -224 -29 -260 -34
-114 -17 -260 -36 -1180 -156 -107 -14 -203 -25 -212 -25 -17 0 -18 72 -18
1365 l0 1365 23 9 c52 20 606 171 626 171 35 0 58 -17 70 -51 15 -42 15 -510
0 -564 -8 -30 -29 -58 -82 -107 -39 -37 -69 -70 -66 -72 2 -2 32 -18 66 -35
102 -51 98 -35 98 -404 l0 -319 40 6 c22 3 64 8 92 11 l53 7 2 805 3 806 295
84 c364 103 358 102 396 70 l29 -25 3 -404 c2 -369 1 -406 -15 -438 -23 -45
-70 -76 -139 -91 -31 -7 -53 -17 -51 -23 2 -6 39 -119 81 -251 43 -132 92
-284 109 -338 l32 -99 55 6 c30 4 71 9 91 12 l36 5 -9 56 c-5 31 -7 400 -6
822 3 757 3 767 24 812 12 25 34 55 50 66 16 11 97 40 179 63 83 23 154 46
158 50 12 11 -91 94 -291 237 -531 376 -749 631 -883 1029 -69 207 -83 304
-84 584 0 220 2 255 23 348 102 453 366 841 922 1352 118 109 294 262 390 341
274 223 392 353 477 521 15 31 29 56 30 54 1 -1 -5 -29 -13 -61z m19 -1367
c-27 -57 -118 -204 -200 -328 -235 -352 -297 -471 -347 -669 -51 -204 -29
-436 58 -609 47 -93 83 -149 233 -361 141 -199 197 -303 219 -411 24 -113 1
-250 -41 -250 -17 0 -25 11 -38 54 -28 89 -86 163 -269 346 -96 96 -194 203
-216 236 -139 208 -189 399 -179 692 7 217 36 331 132 522 98 197 298 459 551
722 67 70 125 136 129 148 4 12 9 19 12 16 4 -3 -16 -52 -44 -108z m2725
-4245 c-12 -27 -76 -173 -144 -326 -68 -153 -124 -284 -124 -291 0 -7 65 -145
144 -307 80 -162 141 -295 138 -296 -4 -1 -131 -16 -282 -33 -151 -16 -294
-33 -317 -36 l-43 -6 0 635 0 635 98 11 c53 6 187 22 297 35 110 13 212 24
227 25 l27 1 -21 -47z m-5728 -1808 c0 -581 -1 -635 -16 -635 -15 0 -267 -28
-538 -60 -49 -6 -91 -9 -93 -6 -3 2 61 153 142 334 l146 330 -145 291 c-80
160 -146 295 -146 300 0 5 44 14 98 20 53 6 189 22 302 35 113 13 215 24 228
25 l22 1 0 -635z m5949 283 c276 -373 370 -661 327 -998 -20 -151 -47 -255
-97 -377 -163 -392 -490 -676 -907 -785 -111 -30 -127 -31 -312 -32 -172 0
-206 3 -290 23 -52 13 -112 30 -132 37 l-37 13 -54 -72 c-114 -150 -289 -326
-434 -436 l-58 -44 0 -196 c0 -175 -2 -200 -20 -236 -41 -83 -116 -137 -218
-156 -35 -6 -458 -9 -1173 -7 l-1119 3 -53 24 c-71 32 -137 107 -158 178 -12
42 -15 90 -13 209 l4 154 -108 85 c-393 312 -686 752 -826 1240 -29 102 -68
307 -76 402 -6 66 -5 84 6 87 8 3 88 15 179 26 91 11 181 23 201 27 35 5 37 4
44 -27 4 -18 22 -79 41 -137 350 -1068 1492 -1637 2525 -1259 297 109 529 262
755 499 103 108 210 250 284 376 164 283 270 662 270 972 0 78 3 99 14 99 19
0 386 49 414 55 l22 5 0 -282 c0 -294 -9 -440 -35 -593 -30 -175 -94 -390
-163 -553 -22 -52 -28 -74 -19 -77 80 -29 303 -34 407 -10 390 91 658 424 685
852 17 252 -80 429 -437 802 -81 85 -115 127 -104 129 8 2 143 18 298 37 156
18 286 33 291 34 4 0 38 -41 76 -91z"/>
<path d="M7955 9033 c-71 -19 -136 -36 -142 -38 -10 -4 -13 -153 -13 -706 l0
-701 23 5 c12 3 82 13 155 23 l132 17 0 718 c0 569 -3 719 -12 718 -7 -1 -71
-17 -143 -36z"/>
<path d="M9978 8353 c2 -345 5 -630 8 -632 6 -7 304 31 309 40 4 6 -295 1154
-313 1202 -4 10 -6 -265 -4 -610z"/>
<path d="M7120 8814 c-25 -6 -88 -23 -140 -37 l-95 -24 -3 -718 -2 -717 22 5
c13 3 76 11 142 18 70 8 120 18 123 25 2 6 -32 124 -76 260 -44 137 -93 292
-110 345 -23 70 -31 115 -31 167 l0 71 38 10 c20 5 64 15 97 21 104 21 95 -7
95 305 0 150 -3 275 -7 278 -5 2 -28 -2 -53 -9z"/>
<path d="M9037 8718 c-4 -51 -21 -212 -37 -358 -70 -616 -88 -775 -86 -777 3
-4 260 28 264 32 2 2 -4 66 -12 142 -24 201 -53 453 -77 653 -11 96 -24 224
-28 283 -5 59 -11 110 -13 113 -3 2 -8 -37 -11 -88z"/>
<path d="M6093 8552 l-133 -36 0 -233 c0 -128 3 -233 7 -233 4 0 44 7 88 17
75 15 84 20 138 72 l57 55 0 198 c0 152 -3 198 -12 197 -7 -1 -73 -18 -145
-37z"/>
<path d="M6038 7882 l-78 -15 0 -262 c0 -144 2 -264 5 -267 5 -5 260 28 283
37 9 3 12 60 12 235 l0 230 -60 30 c-33 16 -65 29 -72 28 -7 0 -48 -8 -90 -16z"/>
<path d="M9860 7395 c-230 -64 -412 -344 -329 -506 l20 -40 32 20 c71 45 157
135 219 228 66 99 134 171 221 233 26 18 47 36 47 40 0 13 -51 30 -103 35 -31
3 -74 -1 -107 -10z"/>
<path d="M10045 7284 c-95 -71 -143 -122 -210 -224 -58 -90 -110 -145 -200
-216 -21 -16 -36 -35 -32 -41 15 -24 98 -37 165 -25 93 15 166 56 247 137 126
126 172 272 119 377 -8 15 -17 29 -22 32 -4 2 -34 -16 -67 -40z"/>
<path d="M8675 7194 c-22 -8 -52 -27 -68 -42 -25 -24 -29 -25 -37 -11 -5 9
-23 22 -38 28 -40 17 -99 -7 -108 -43 -6 -27 -6 -31 19 -156 8 -41 20 -132 26
-202 18 -197 44 -259 117 -274 24 -4 37 0 63 22 37 31 38 57 7 127 l-16 37 27
0 c34 0 120 23 153 40 98 51 160 151 160 257 0 72 -14 113 -56 162 -55 66
-158 88 -249 55z m101 -167 c20 -18 28 -35 31 -73 9 -92 -41 -144 -137 -144
-50 0 -58 16 -62 121 l-3 73 34 23 c45 31 101 31 137 0z"/>
<path d="M8190 7133 c-56 -21 -62 -63 -26 -169 12 -38 26 -90 30 -117 7 -44 5
-50 -23 -77 -48 -48 -116 -39 -146 20 -19 37 -19 83 0 146 28 94 17 144 -36
163 -73 25 -137 -46 -146 -162 -10 -118 35 -234 113 -294 32 -24 48 -28 113
-31 64 -3 83 0 123 21 42 21 49 22 73 9 32 -16 71 -9 103 20 25 25 28 50 8
104 -7 22 -19 84 -26 139 -24 192 -72 260 -160 228z"/>
<path d="M7465 7032 c-66 -22 -149 -101 -164 -157 -38 -140 28 -280 150 -320
70 -24 178 -17 242 14 123 60 146 201 33 201 -37 0 -43 -4 -100 -71 -21 -25
-81 -25 -123 1 -63 38 -69 152 -12 204 28 24 38 28 76 23 26 -3 54 -14 67 -26
36 -34 118 -21 132 21 9 30 -27 81 -76 106 -54 27 -150 29 -225 4z"/>
<path d="M6191 6923 c-66 -35 -65 -46 21 -127 59 -57 103 -87 199 -137 105
-54 136 -76 208 -147 61 -61 87 -80 95 -72 6 6 11 45 11 88 0 70 -4 84 -39
150 -48 90 -139 177 -233 224 -56 28 -81 33 -148 36 -62 2 -88 -1 -114 -15z"/>
<path d="M6079 6788 c-35 -133 94 -339 268 -425 61 -30 87 -37 151 -41 67 -3
83 -1 121 20 25 13 46 29 48 35 5 14 -97 124 -155 167 -26 19 -92 57 -148 85
-74 37 -122 70 -181 126 -45 41 -84 75 -87 75 -3 0 -10 -19 -17 -42z"/>
</g>
</svg>
