<svg xmlns="http://www.w3.org/2000/svg" xmlns:xlink="http://www.w3.org/1999/xlink" width="49" height="49" viewBox="0 0 49 49"><defs><path id="d6tca" d="M135 1273v-6.32c0-.09.03-.18.1-.24l2.45-2.63a.3.3 0 0 1 .24-.1l1.67.09c.08 0 .17-.03.23-.1.06-.05.1-.14.1-.23l.1-3.77c0-.09.03-.17.09-.23l1.63-1.75a.3.3 0 0 1 .25-.1l3 .19c.17 0 .32-.14.33-.32l.2-3.93c0-.17.13-.3.3-.32l2.63-.24a.3.3 0 0 0 .2-.1l2.54-2.67a.35.35 0 0 0 0-.48l-2.65-2.83a.35.35 0 0 1-.08-.33.33.33 0 0 1 .22-.24L152 1245"/><path id="d6tcb" d="M161 1255l-.82 3.17a.32.32 0 0 1-.23.24.33.33 0 0 1-.32-.08l-2.33-2.31a.33.33 0 0 0-.46 0l-17 16.88a.34.34 0 0 1-.24.1H135"/><path id="d6tcc" d="M152.67 1245.48a14.76 14.76 0 0 1 3.91-15.09 14.8 14.8 0 0 1 21.06 0 15.08 15.08 0 0 1 0 21.21 14.81 14.81 0 0 1-16.75 3.03"/><path id="d6tcd" d="M169.88 1238.11a2.98 2.98 0 0 1 0-4.22 2.97 2.97 0 0 1 4.24 0 2.98 2.98 0 0 1 0 4.22 2.97 2.97 0 0 1-4.24 0z"/><path id="d6tce" d="M154 1254l-19 19"/></defs><g><g transform="translate(-134 -1225)"><g><use fill="#fff" fill-opacity="0" stroke="#c53d37" stroke-linecap="round" stroke-miterlimit="50" stroke-width="2" xlink:href="#d6tca"/></g><g><use fill="#fff" fill-opacity="0" stroke="#c53d37" stroke-linecap="round" stroke-miterlimit="50" stroke-width="2" xlink:href="#d6tcb"/></g><g><use fill="#fff" fill-opacity="0" stroke="#c53d37" stroke-linecap="round" stroke-miterlimit="50" stroke-width="2" xlink:href="#d6tcc"/></g><g><use fill="#fff" fill-opacity="0" stroke="#c53d37" stroke-linecap="round" stroke-miterlimit="50" stroke-width="2" xlink:href="#d6tcd"/></g><g><use fill="#fff" fill-opacity="0" stroke="#c53d37" stroke-linecap="round" stroke-miterlimit="50" stroke-width="2" xlink:href="#d6tce"/></g></g></g></svg>