<svg xmlns="http://www.w3.org/2000/svg" xmlns:xlink="http://www.w3.org/1999/xlink" width="42" height="72" viewBox="0 0 42 72"><defs><path id="k6ywa" d="M138 1662h40"/><path id="k6ywb" d="M148.06 1593.4c6.67 8.19 4.82 13.52 3.29 15.92"/><path id="k6ywc" d="M148 1593.38c.36.29 4.73 3.73 7.63 0"/><path id="k6ywd" d="M155.69 1593.38c-.06.21-.8 3.14.34 4.48 0 0 2.43.23 3-5.87 0 0 4.55 5.3 8.59 1.38 0 0-5 10.21-3.48 15.72"/><path id="k6ywe" d="M164.17 1609.1a16 16 0 1 1-12.82.22s6.34 3.57 12.82-.22"/><path id="k6ywf" d="M160.34 1620.8c-2.34-1.17-6.18-.35-5.22 3.2.44 1.6 2.25 2.1 3.53 2.71 1.28.62 2.67 2.1 1.9 3.8-.95 2.08-3.8 1.73-5.44.87"/><path id="k6ywg" d="M158 1632v2"/><path id="k6ywh" d="M158 1620v-1"/></defs><g><g opacity=".14" transform="translate(-137 -1591)"><use fill="#fff" fill-opacity="0" stroke="#c53d37" stroke-linecap="square" stroke-miterlimit="50" xlink:href="#k6ywa"/></g><g transform="translate(-137 -1591)"><g><use fill="#fff" fill-opacity="0" stroke="#c53d37" stroke-linecap="round" stroke-linejoin="round" stroke-miterlimit="50" stroke-width="2" xlink:href="#k6ywb"/></g><g><use fill="#fff" fill-opacity="0" stroke="#c53d37" stroke-linecap="round" stroke-linejoin="round" stroke-miterlimit="50" stroke-width="2" xlink:href="#k6ywc"/></g><g><use fill="#fff" fill-opacity="0" stroke="#c53d37" stroke-linecap="round" stroke-linejoin="round" stroke-miterlimit="50" stroke-width="2" xlink:href="#k6ywd"/></g><g><use fill="#fff" fill-opacity="0" stroke="#c53d37" stroke-miterlimit="50" stroke-width="2" xlink:href="#k6ywe"/></g><g><use fill="#fff" fill-opacity="0" stroke="#c53d37" stroke-linecap="round" stroke-miterlimit="50" stroke-width="2" xlink:href="#k6ywf"/></g><g><use fill="#fff" fill-opacity="0" stroke="#c53d37" stroke-linecap="round" stroke-miterlimit="50" stroke-width="2" xlink:href="#k6ywg"/></g><g><use fill="#fff" fill-opacity="0" stroke="#c53d37" stroke-linecap="round" stroke-miterlimit="50" stroke-width="2" xlink:href="#k6ywh"/></g></g></g></svg>