<svg xmlns="http://www.w3.org/2000/svg" xmlns:xlink="http://www.w3.org/1999/xlink" width="58" height="48" viewBox="0 0 58 48"><defs><path id="cwxqa" d="M1066 7603c0-8.84 6.94-16 15.5-16 8.56 0 15.5 7.16 15.5 16s-6.94 16-15.5 16c-8.56 0-15.5-7.16-15.5-16z"/><path id="cwxqb" d="M1041 7579c0-3.31 8.95-6 20-6s20 2.69 20 6-8.95 6-20 6-20-2.69-20-6z"/><path id="cwxqc" d="M1041 7589c0 3.86 8.95 7 20 7 2.1 0 4.1-.12 6-.33"/><path id="cwxqd" d="M1041 7600c0 3.87 8.99 7 20.08 7 1.7 0 3.35-.08 4.92-.21"/><path id="cwxqe" d="M1041 7610c0 3.86 8.89 7 19.85 7 3.74.03 7.48-.38 11.15-1.2"/><path id="cwxqf" d="M1077.17 7607.48c1.86 1.28 7.12 0 7.71-1.64.6-1.64-1.16-3.48-3.71-3.97-2.56-.48-4.82-2.63-4-4.2.83-1.57 4.4-1.97 6.97-1.47"/><path id="cwxqg" d="M1081 7593v17"/></defs><g><g transform="translate(-1040 -7572)"><g><use fill="#fff" fill-opacity="0" stroke="#000" stroke-linecap="round" stroke-linejoin="round" stroke-miterlimit="50" stroke-width="2" xlink:href="#cwxqa"/></g><g><use fill="#fff" fill-opacity="0" stroke="#000" stroke-linecap="round" stroke-linejoin="round" stroke-miterlimit="50" stroke-width="2" xlink:href="#cwxqb"/></g><g><use fill="#fff" fill-opacity="0" stroke="#000" stroke-linecap="round" stroke-linejoin="round" stroke-miterlimit="50" stroke-width="2" xlink:href="#cwxqc"/></g><g><use fill="#fff" fill-opacity="0" stroke="#000" stroke-linecap="round" stroke-linejoin="round" stroke-miterlimit="50" stroke-width="2" xlink:href="#cwxqd"/></g><g><use fill="#fff" fill-opacity="0" stroke="#000" stroke-linecap="round" stroke-linejoin="round" stroke-miterlimit="50" stroke-width="2" xlink:href="#cwxqe"/></g><g><use fill="#fff" fill-opacity="0" stroke="#000" stroke-linecap="round" stroke-linejoin="round" stroke-miterlimit="50" stroke-width="1.93" xlink:href="#cwxqf"/></g><g><use fill="#fff" fill-opacity="0" stroke="#000" stroke-linecap="round" stroke-linejoin="round" stroke-miterlimit="50" stroke-width="2" xlink:href="#cwxqg"/></g></g></g></svg>