<svg xmlns="http://www.w3.org/2000/svg" xmlns:xlink="http://www.w3.org/1999/xlink" width="44" height="53" viewBox="0 0 44 53"><defs><path id="3esla" d="M1082 7709.83V7723h-27.42c-3.03 0-6.58-2.46-6.58-5.49V7678"/><path id="3eslb" d="M1082 7694v-11h-27.42a7.5 7.5 0 0 1-4.39-1.6 5.12 5.12 0 0 1-2.19-3.9c0-3.04 3.55-5.5 6.58-5.5H1082"/><path id="3eslc" d="M1052 7678h30"/><path id="3esld" d="M1075 7702c0-4.42 3.36-8 7.5-8 4.14 0 7.5 3.58 7.5 8s-3.36 8-7.5 8c-4.14 0-7.5-3.58-7.5-8z"/><path id="3esle" d="M1079 7703.6l2.29 2.4 5.71-6"/><path id="3eslf" d="M1057 7683v9l3.5-2.25 3.5 2.25v-9"/></defs><g><g transform="translate(-1047 -7671)"><g><use fill="#fff" fill-opacity="0" stroke="#000" stroke-linecap="round" stroke-linejoin="round" stroke-miterlimit="50" stroke-width="2" xlink:href="#3esla"/></g><g><use fill="#fff" fill-opacity="0" stroke="#000" stroke-linecap="round" stroke-linejoin="round" stroke-miterlimit="50" stroke-width="2" xlink:href="#3eslb"/></g><g><use fill="#fff" fill-opacity="0" stroke="#000" stroke-linecap="round" stroke-linejoin="round" stroke-miterlimit="50" stroke-width="2" xlink:href="#3eslc"/></g><g><use fill="#fff" fill-opacity="0" stroke="#000" stroke-linecap="round" stroke-linejoin="round" stroke-miterlimit="50" stroke-width="2" xlink:href="#3esld"/></g><g><use fill="#fff" fill-opacity="0" stroke="#000" stroke-linecap="round" stroke-linejoin="round" stroke-miterlimit="50" stroke-width="2" xlink:href="#3esle"/></g><g><use fill="#fff" fill-opacity="0" stroke="#000" stroke-linecap="round" stroke-linejoin="round" stroke-miterlimit="50" stroke-width="2" xlink:href="#3eslf"/></g></g></g></svg>