<svg xmlns="http://www.w3.org/2000/svg" xmlns:xlink="http://www.w3.org/1999/xlink" width="49" height="49" viewBox="0 0 49 49"><defs><path id="5d4pa" d="M760 7873.5a4.5 4.5 0 1 1 9 0 4.5 4.5 0 0 1-9 0z"/><path id="5d4pb" d="M772 7890c0-4.97-3.58-9-8-9s-8 4.03-8 9z"/><path id="5d4pc" d="M745 7900.5a4.5 4.5 0 1 1 9 0 4.5 4.5 0 0 1-9 0z"/><path id="5d4pd" d="M757 7916c0-4.97-3.58-9-8-9s-8 4.03-8 9z"/><path id="5d4pe" d="M776 7900.5a4.5 4.5 0 1 1 9 0 4.5 4.5 0 0 1-9 0z"/><path id="5d4pf" d="M788 7916c0-4.97-3.58-9-8-9s-8 4.03-8 9z"/><path id="5d4pg" d="M765 7897v6"/><path id="5d4ph" d="M759 7905l5-3"/><path id="5d4pi" d="M770 7905l-5-3"/></defs><g><g transform="translate(-740 -7868)"><g><use fill="#fff" fill-opacity="0" stroke="#000" stroke-linecap="round" stroke-linejoin="round" stroke-miterlimit="50" stroke-width="2" xlink:href="#5d4pa"/></g><g><use fill="#fff" fill-opacity="0" stroke="#000" stroke-linecap="round" stroke-linejoin="round" stroke-miterlimit="50" stroke-width="2" xlink:href="#5d4pb"/></g><g><use fill="#fff" fill-opacity="0" stroke="#000" stroke-linecap="round" stroke-linejoin="round" stroke-miterlimit="50" stroke-width="2" xlink:href="#5d4pc"/></g><g><use fill="#fff" fill-opacity="0" stroke="#000" stroke-linecap="round" stroke-linejoin="round" stroke-miterlimit="50" stroke-width="2" xlink:href="#5d4pd"/></g><g><use fill="#fff" fill-opacity="0" stroke="#000" stroke-linecap="round" stroke-linejoin="round" stroke-miterlimit="50" stroke-width="2" xlink:href="#5d4pe"/></g><g><use fill="#fff" fill-opacity="0" stroke="#000" stroke-linecap="round" stroke-linejoin="round" stroke-miterlimit="50" stroke-width="2" xlink:href="#5d4pf"/></g><g><use fill="#fff" fill-opacity="0" stroke="#000" stroke-linecap="round" stroke-linejoin="round" stroke-miterlimit="50" stroke-width="2" xlink:href="#5d4pg"/></g><g><use fill="#fff" fill-opacity="0" stroke="#000" stroke-linecap="round" stroke-linejoin="round" stroke-miterlimit="50" stroke-width="2" xlink:href="#5d4ph"/></g><g><use fill="#fff" fill-opacity="0" stroke="#000" stroke-linecap="round" stroke-linejoin="round" stroke-miterlimit="50" stroke-width="2" xlink:href="#5d4pi"/></g></g></g></svg>