<svg xmlns="http://www.w3.org/2000/svg" xmlns:xlink="http://www.w3.org/1999/xlink" width="52" height="46" viewBox="0 0 52 46"><defs><path id="e9mda" d="M1062 7774.97c0-2.2 1.78-3.97 3.97-3.97h13.06c2.2 0 3.97 1.78 3.97 3.97v1.06c0 2.2-1.78 3.97-3.97 3.97h-13.06a3.97 3.97 0 0 1-3.97-3.97z"/><path id="e9mdb" d="M1080 7780c-2.2 0-4-2.01-4-4.5s1.8-4.5 4-4.5"/><path id="e9mdc" d="M1049 7807.97c0-2.2 1.78-3.97 3.97-3.97h13.06c2.2 0 3.97 1.78 3.97 3.97v1.06c0 2.2-1.78 3.97-3.97 3.97h-13.06a3.97 3.97 0 0 1-3.97-3.97z"/><path id="e9mdd" d="M1054 7804c2.2 0 4 2.01 4 4.5s-1.8 4.5-4 4.5"/><path id="e9mde" d="M1088 7775h4"/><path id="e9mdf" d="M1088 7772l4-2"/><path id="e9mdg" d="M1092 7781l-4-2"/><path id="e9mdh" d="M1046 7809h-4"/><path id="e9mdi" d="M1046 7805l-4-2"/><path id="e9mdj" d="M1042 7814l4-2"/><path id="e9mdk" d="M1063.14 7775h-3.88a8.25 8.25 0 1 0 .02 16.5h15.46a8.27 8.27 0 0 1 8.26 8.26 8.27 8.27 0 0 1-8.26 8.24h-2.77"/></defs><g><g transform="translate(-1041 -7769)"><g><use fill="#fff" fill-opacity="0" stroke="#000" stroke-linecap="round" stroke-linejoin="round" stroke-miterlimit="50" stroke-width="2" xlink:href="#e9mda"/></g><g><use fill="#fff" fill-opacity="0" stroke="#000" stroke-linecap="round" stroke-linejoin="round" stroke-miterlimit="50" stroke-width="2" xlink:href="#e9mdb"/></g><g><use fill="#fff" fill-opacity="0" stroke="#000" stroke-linecap="round" stroke-linejoin="round" stroke-miterlimit="50" stroke-width="2" xlink:href="#e9mdc"/></g><g><use fill="#fff" fill-opacity="0" stroke="#000" stroke-linecap="round" stroke-linejoin="round" stroke-miterlimit="50" stroke-width="2" xlink:href="#e9mdd"/></g><g><use fill="#fff" fill-opacity="0" stroke="#000" stroke-linecap="round" stroke-linejoin="round" stroke-miterlimit="50" stroke-width="2" xlink:href="#e9mde"/></g><g><use fill="#fff" fill-opacity="0" stroke="#000" stroke-linecap="round" stroke-linejoin="round" stroke-miterlimit="50" stroke-width="2" xlink:href="#e9mdf"/></g><g><use fill="#fff" fill-opacity="0" stroke="#000" stroke-linecap="round" stroke-linejoin="round" stroke-miterlimit="50" stroke-width="2" xlink:href="#e9mdg"/></g><g><use fill="#fff" fill-opacity="0" stroke="#000" stroke-linecap="round" stroke-linejoin="round" stroke-miterlimit="50" stroke-width="2" xlink:href="#e9mdh"/></g><g><use fill="#fff" fill-opacity="0" stroke="#000" stroke-linecap="round" stroke-linejoin="round" stroke-miterlimit="50" stroke-width="2" xlink:href="#e9mdi"/></g><g><use fill="#fff" fill-opacity="0" stroke="#000" stroke-linecap="round" stroke-linejoin="round" stroke-miterlimit="50" stroke-width="2" xlink:href="#e9mdj"/></g><g><use fill="#fff" fill-opacity="0" stroke="#000" stroke-linecap="round" stroke-linejoin="round" stroke-miterlimit="50" stroke-width="2" xlink:href="#e9mdk"/></g></g></g></svg>