<svg xmlns="http://www.w3.org/2000/svg" xmlns:xlink="http://www.w3.org/1999/xlink" width="54" height="51" viewBox="0 0 54 51"><defs><path id="hk67a" d="M737 7674a3 3 0 0 1 3-3h48a3 3 0 0 1 3 3v45a3 3 0 0 1-3 3h-48a3 3 0 0 1-3-3z"/><path id="hk67c" d="M750.7 7694.31c0-1.47 1.2-2.66 2.7-2.66 1.48 0 2.69 1.2 2.69 2.66 0 1.48-1.21 2.67-2.7 2.67-1.49 0-2.7-1.2-2.7-2.67z"/><path id="hk67d" d="M758.78 7705a5.55 5.55 0 0 0-5.39-5.33A5.55 5.55 0 0 0 748 7705z"/><path id="hk67e" d="M770.91 7694.31c0-1.47 1.21-2.66 2.7-2.66 1.49 0 2.7 1.2 2.7 2.66 0 1.48-1.21 2.67-2.7 2.67-1.49 0-2.7-1.2-2.7-2.67z"/><path id="hk67f" d="M779 7705a5.55 5.55 0 0 0-5.4-5.33 5.55 5.55 0 0 0-5.38 5.33z"/><path id="hk67g" d="M758.78 7698.31c0-.36.3-.66.68-.66.37 0 .67.3.67.66a.67.67 0 1 1-1.35 0z"/><path id="hk67h" d="M762.83 7698.31c0-.36.3-.66.67-.66.37 0 .67.3.67.66a.67.67 0 1 1-1.35 0z"/><path id="hk67i" d="M766.87 7698.31c0-.36.3-.66.67-.66.38 0 .68.3.68.66 0 .37-.3.67-.68.67a.67.67 0 0 1-.67-.67z"/><clipPath id="hk67b"><use fill="#fff" xlink:href="#hk67a"/></clipPath></defs><g><g transform="translate(-737 -7671)"><g><use fill="#fff" fill-opacity="0" stroke="#000" stroke-miterlimit="50" stroke-width="4" clip-path="url(&quot;#hk67b&quot;)" xlink:href="#hk67a"/></g><g><g><g><use fill="#fff" fill-opacity="0" stroke="#000" stroke-linecap="round" stroke-linejoin="round" stroke-miterlimit="50" stroke-width="2" xlink:href="#hk67c"/></g><g><use fill="#fff" fill-opacity="0" stroke="#000" stroke-linecap="round" stroke-linejoin="round" stroke-miterlimit="50" stroke-width="2" xlink:href="#hk67d"/></g><g><use fill="#fff" fill-opacity="0" stroke="#000" stroke-linecap="round" stroke-linejoin="round" stroke-miterlimit="50" stroke-width="2" xlink:href="#hk67e"/></g><g><use fill="#fff" fill-opacity="0" stroke="#000" stroke-linecap="round" stroke-linejoin="round" stroke-miterlimit="50" stroke-width="2" xlink:href="#hk67f"/></g><g><use fill="#fff" fill-opacity="0" stroke="#000" stroke-linecap="round" stroke-linejoin="round" stroke-miterlimit="50" stroke-width="2" xlink:href="#hk67g"/></g><g><use fill="#fff" fill-opacity="0" stroke="#000" stroke-linecap="round" stroke-linejoin="round" stroke-miterlimit="50" stroke-width="2" xlink:href="#hk67h"/></g><g><use fill="#fff" fill-opacity="0" stroke="#000" stroke-linecap="round" stroke-linejoin="round" stroke-miterlimit="50" stroke-width="2" xlink:href="#hk67i"/></g></g></g></g></g></svg>