<svg xmlns="http://www.w3.org/2000/svg" xmlns:xlink="http://www.w3.org/1999/xlink" width="46" height="43" viewBox="0 0 46 43"><defs><path id="g1qya" d="M746.92 7797.09a3.11 3.11 0 0 1 0-4.44l2.69-2.74a3.2 3.2 0 0 1 4.47 0 3.11 3.11 0 0 1 0 4.44l-2.69 2.74a3.2 3.2 0 0 1-4.47 0z"/><path id="g1qyb" d="M750.92 7801.09a3.11 3.11 0 0 1 0-4.44l2.69-2.74a3.2 3.2 0 0 1 4.47 0 3.11 3.11 0 0 1 0 4.44l-2.69 2.74a3.2 3.2 0 0 1-4.47 0z"/><path id="g1qyc" d="M755.92 7806.09a3.11 3.11 0 0 1 0-4.44l2.69-2.74a3.2 3.2 0 0 1 4.47 0 3.11 3.11 0 0 1 0 4.44l-2.69 2.74a3.2 3.2 0 0 1-4.47 0z"/><path id="g1qyd" d="M760.95 7810.09a3.17 3.17 0 0 1-.06-4.48l2.68-2.73a3.25 3.25 0 0 1 4.51.06 3.1 3.1 0 0 1 0 4.42l-2.67 2.73a3.18 3.18 0 0 1-4.46 0z"/><path id="g1qye" d="M768 7779l-6.55 6.12a3.36 3.36 0 0 1-4.54 0 2.77 2.77 0 0 1 .15-4.22l6.29-5.9"/><path id="g1qyf" d="M766 7795l6.1 6.47c.58.6.9 1.43.9 2.3 0 .86-.32 1.7-.9 2.3a2.96 2.96 0 0 1-3.48.61"/><path id="g1qyg" d="M771 7790l6.1 6.46c.58.6.9 1.43.9 2.3 0 .86-.32 1.68-.9 2.28a2.96 2.96 0 0 1-4.36 0"/><path id="g1qyh" d="M776 7786l6.08 5.88a2.9 2.9 0 0 1 0 4.24 3.3 3.3 0 0 1-4.5 0"/><path id="g1qyi" d="M746 7793c-5.08-4.93-5.45-13.38-.36-18.3a13.31 13.31 0 0 1 18.36-.05"/><path id="g1qyj" d="M769 7779l7 7"/><path id="g1qyk" d="M764 7774.63a13.35 13.35 0 0 1 18.23-.07 12.02 12.02 0 0 1 3.77 8.72c0 3.29-1.36 6.44-3.77 8.72"/></defs><g><g transform="translate(-741 -7770)"><g><use fill="#fff" fill-opacity="0" stroke="#000" stroke-linecap="round" stroke-miterlimit="50" stroke-width="2" xlink:href="#g1qya"/></g><g><use fill="#fff" fill-opacity="0" stroke="#000" stroke-linecap="round" stroke-miterlimit="50" stroke-width="2" xlink:href="#g1qyb"/></g><g><use fill="#fff" fill-opacity="0" stroke="#000" stroke-linecap="round" stroke-miterlimit="50" stroke-width="2" xlink:href="#g1qyc"/></g><g><use fill="#fff" fill-opacity="0" stroke="#000" stroke-linecap="round" stroke-miterlimit="50" stroke-width="2" xlink:href="#g1qyd"/></g><g><use fill="#fff" fill-opacity="0" stroke="#000" stroke-linecap="round" stroke-miterlimit="50" stroke-width="2" xlink:href="#g1qye"/></g><g><use fill="#fff" fill-opacity="0" stroke="#000" stroke-linecap="round" stroke-miterlimit="50" stroke-width="2" xlink:href="#g1qyf"/></g><g><use fill="#fff" fill-opacity="0" stroke="#000" stroke-linecap="round" stroke-miterlimit="50" stroke-width="2" xlink:href="#g1qyg"/></g><g><use fill="#fff" fill-opacity="0" stroke="#000" stroke-linecap="round" stroke-miterlimit="50" stroke-width="2" xlink:href="#g1qyh"/></g><g><use fill="#fff" fill-opacity="0" stroke="#000" stroke-linecap="round" stroke-miterlimit="50" stroke-width="2" xlink:href="#g1qyi"/></g><g><use fill="#fff" fill-opacity="0" stroke="#000" stroke-linecap="round" stroke-miterlimit="50" stroke-width="2" xlink:href="#g1qyj"/></g><g><use fill="#fff" fill-opacity="0" stroke="#000" stroke-linecap="round" stroke-miterlimit="50" stroke-width="2" xlink:href="#g1qyk"/></g></g></g></svg>