<svg xmlns="http://www.w3.org/2000/svg" xmlns:xlink="http://www.w3.org/1999/xlink" width="46" height="54" viewBox="0 0 46 54"><defs><path id="kntra" d="M1047.87 8001a24.43 24.43 0 0 1-2.87-11.56c0-12.94 9.85-21.44 22-21.44s22 8.5 22 21.44c.01 4.03-.98 8-2.87 11.56"/><path id="kntrb" d="M1075 7969.01c0 1.8-4.53.59-8 .59-3.47 0-8 1.22-8-.59 0-1.8 4.53-2.01 8-2.01 3.47 0 8 .24 8 2.01z"/><path id="kntrc" d="M1081.66 8006.98a4.06 4.06 0 0 0 4.46-3.55l.85-8a4.02 4.02 0 0 0-3.61-4.41 4.17 4.17 0 0 0-3 .88 3.94 3.94 0 0 0-1.48 2.68l-.86 8c-.11 1.05.2 2.1.88 2.93a4.14 4.14 0 0 0 2.76 1.47z"/><path id="kntrd" d="M1053.34 8006.98a4.06 4.06 0 0 1-4.46-3.55l-.85-8a4.02 4.02 0 0 1 3.61-4.41c1.08-.1 2.16.21 3 .88a3.94 3.94 0 0 1 1.48 2.68l.86 8c.11 1.05-.2 2.1-.88 2.93a4.14 4.14 0 0 1-2.76 1.47z"/><path id="kntre" d="M1067 8019c5.1-2.98 10.3-6.25 14-11"/><path id="kntrf" d="M1070.84 8016.5c.16.23.2.5.11.77-.09.25-.3.47-.6.6l-2.34 1c-.64.27-1.45.11-1.85-.38a.82.82 0 0 1-.11-.76c.09-.26.3-.47.6-.6l2.34-1c.64-.27 1.44-.11 1.83.37z"/></defs><g><g transform="translate(-1044 -7966)"><g><use fill="#fff" fill-opacity="0" stroke="#000" stroke-linecap="round" stroke-linejoin="round" stroke-miterlimit="50" stroke-width="2" xlink:href="#kntra"/></g><g><use fill="#fff" fill-opacity="0" stroke="#000" stroke-linecap="round" stroke-linejoin="round" stroke-miterlimit="50" stroke-width="2" xlink:href="#kntrb"/></g><g><use fill="#fff" fill-opacity="0" stroke="#000" stroke-linecap="round" stroke-linejoin="round" stroke-miterlimit="50" stroke-width="2" xlink:href="#kntrc"/></g><g><use fill="#fff" fill-opacity="0" stroke="#000" stroke-linecap="round" stroke-linejoin="round" stroke-miterlimit="50" stroke-width="2" xlink:href="#kntrd"/></g><g><use fill="#fff" fill-opacity="0" stroke="#000" stroke-linecap="round" stroke-linejoin="round" stroke-miterlimit="50" stroke-width="2" xlink:href="#kntre"/></g><g><use fill="#fff" fill-opacity="0" stroke="#000" stroke-linecap="round" stroke-linejoin="round" stroke-miterlimit="50" stroke-width="2" xlink:href="#kntrf"/></g></g></g></svg>