<svg xmlns="http://www.w3.org/2000/svg" xmlns:xlink="http://www.w3.org/1999/xlink" width="51" height="51" viewBox="0 0 51 51"><defs><path id="1dmja" d="M785.03 7605.13a24.5 24.5 0 1 0-9.73 11.26"/><path id="1dmjb" d="M771.35 7613a5.58 5.58 0 0 1 .13-7.43 4.86 4.86 0 0 1 7.02-.14c2-1.96 5.1-1.9 7.02.14a5.58 5.58 0 0 1 .13 7.43"/><path id="1dmjc" d="M771 7613l7.5 7 7.5-7"/><path id="1dmjd" d="M751 7589a3 3 0 1 1 6 0 3 3 0 0 1-6 0z"/><path id="1dmje" d="M768 7589a3 3 0 1 1 6 0 3 3 0 0 1-6 0z"/><path id="1dmjf" d="M754 7607a17 17 0 0 0 16 0"/></defs><g><g transform="translate(-737 -7570)"><g><use fill="#fff" fill-opacity="0" stroke="#231f20" stroke-miterlimit="50" stroke-width="2" xlink:href="#1dmja"/></g><g><use fill="#fff" fill-opacity="0" stroke="#231f20" stroke-linecap="round" stroke-linejoin="round" stroke-miterlimit="50" stroke-width="2" xlink:href="#1dmjb"/></g><g><use fill="#fff" fill-opacity="0" stroke="#231f20" stroke-linecap="round" stroke-linejoin="round" stroke-miterlimit="50" stroke-width="2" xlink:href="#1dmjc"/></g><g><use fill="#231f20" xlink:href="#1dmjd"/></g><g><use fill="#231f20" xlink:href="#1dmje"/></g><g><use fill="#fff" fill-opacity="0" stroke="#231f20" stroke-linecap="round" stroke-linejoin="round" stroke-miterlimit="50" stroke-width="2" xlink:href="#1dmjf"/></g></g></g></svg>