<svg xmlns="http://www.w3.org/2000/svg" xmlns:xlink="http://www.w3.org/1999/xlink" width="107" height="28"><defs><path id="a" d="M773.65 6454.28c-.02-3.01 2.53-4.48 2.65-4.55a5.74 5.74 0 0 0-4.48-2.36c-1.89-.2-3.72 1.1-4.68 1.1-.97 0-2.45-1.08-4.05-1.05a5.99 5.99 0 0 0-5.02 2.99c-2.17 3.67-.55 9.06 1.53 12.02 1.04 1.46 2.26 3.08 3.85 3.02 1.56-.06 2.14-.97 4.02-.97 1.86 0 2.4.97 4.03.93 1.67-.02 2.72-1.45 3.73-2.92 1.2-1.66 1.68-3.3 1.7-3.39a5.26 5.26 0 0 1-3.28-4.82"/><path id="b" d="M770.58 6445.42a5.25 5.25 0 0 0 1.25-3.82 5.62 5.62 0 0 0-3.6 1.82 5 5 0 0 0-1.28 3.68c1.36.1 2.76-.67 3.63-1.68"/><path id="c" d="M794.49 6460.07l-1.08-3.26c-.12-.33-.33-1.12-.65-2.35h-.04c-.12.53-.33 1.32-.6 2.35l-1.07 3.26h3.44zm3.72 5.18h-2.18l-1.2-3.66h-4.14l-1.13 3.66h-2.12l4.1-12.45h2.54l4.13 12.45z"/><path id="d" d="M806.66 6460.71c0-.87-.2-1.59-.6-2.16a2.1 2.1 0 0 0-1.78-.88 2.25 2.25 0 0 0-2.17 1.77c-.07.25-.1.45-.1.6v1.5c0 .66.2 1.2.61 1.66.41.45.95.67 1.6.67.77 0 1.37-.29 1.8-.87.43-.57.64-1.34.64-2.29zm2.08-.07a5 5 0 0 1-1.27 3.62 3.78 3.78 0 0 1-2.84 1.18c-1.21 0-2.09-.42-2.62-1.27v4.7h-2.04v-9.66c0-.95-.03-1.94-.08-2.94h1.8l.11 1.42h.04a3.43 3.43 0 0 1 3.1-1.61c1.09 0 2 .42 2.72 1.25a4.88 4.88 0 0 1 1.08 3.31z"/><path id="e" d="M817.23 6460.71c0-.87-.2-1.59-.6-2.16a2.1 2.1 0 0 0-1.78-.88 2.26 2.26 0 0 0-2.17 1.77c-.06.25-.1.45-.1.6v1.5c0 .66.21 1.2.62 1.66.4.45.94.67 1.6.67.77 0 1.36-.29 1.79-.87.43-.57.64-1.34.64-2.29zm2.1-.07a5 5 0 0 1-1.28 3.62 3.78 3.78 0 0 1-2.84 1.18c-1.21 0-2.09-.42-2.62-1.27v4.7h-2.04v-9.66c0-.95-.03-1.94-.08-2.94h1.8l.11 1.42h.04a3.42 3.42 0 0 1 3.1-1.61c1.09 0 2 .42 2.72 1.25a4.89 4.89 0 0 1 1.08 3.31z"/><path id="f" d="M831.15 6461.75c0 1.06-.38 1.92-1.13 2.58a5.1 5.1 0 0 1-3.48 1.1 6.18 6.18 0 0 1-3.3-.78l.47-1.66c.9.51 1.88.77 2.95.77.77 0 1.37-.17 1.8-.5.43-.34.65-.8.65-1.36 0-.5-.18-.93-.54-1.28a4.96 4.96 0 0 0-1.75-.96c-2.24-.8-3.35-2-3.35-3.56 0-1.02.4-1.86 1.18-2.51a4.75 4.75 0 0 1 3.13-.98c1.16 0 2.13.2 2.9.6l-.52 1.62a5.16 5.16 0 0 0-2.45-.58c-.72 0-1.29.18-1.69.52-.34.3-.51.68-.51 1.13 0 .49.2.9.59 1.22.33.3.95.61 1.85.96 1.1.43 1.9.93 2.42 1.51s.78 1.3.78 2.16"/><path id="g" d="M837.92 6457.76h-2.25v4.36c0 1.1.4 1.66 1.19 1.66.36 0 .67-.03.9-.1l.06 1.52c-.4.15-.93.22-1.58.22-.81 0-1.44-.24-1.9-.72-.45-.48-.68-1.28-.68-2.42v-4.52h-1.34v-1.5h1.34v-1.64l2-.59v2.23h2.26v1.5"/><path id="h" d="M845.95 6460.73c0-.82-.18-1.53-.55-2.12a2.04 2.04 0 0 0-1.84-1.06c-.82 0-1.45.35-1.88 1.06a4 4 0 0 0-.55 2.16c0 .82.19 1.53.55 2.12a2.08 2.08 0 0 0 1.86 1.07c.79 0 1.4-.37 1.84-1.1.38-.6.57-1.3.57-2.13zm2.1-.04c0 1.37-.4 2.5-1.2 3.4a4.37 4.37 0 0 1-3.37 1.36 4.16 4.16 0 0 1-3.23-1.31 4.7 4.7 0 0 1-1.2-3.3c0-1.4.41-2.53 1.24-3.42a4.35 4.35 0 0 1 3.34-1.33c1.35 0 2.43.44 3.25 1.31a4.64 4.64 0 0 1 1.18 3.29z"/><path id="i" d="M854.7 6458.02c-.2-.04-.42-.06-.64-.06-.72 0-1.28.27-1.67.8a2.93 2.93 0 0 0-.5 1.77v4.7h-2.05v-6.14c0-1.03-.02-1.98-.06-2.82h1.78l.07 1.71h.06c.22-.59.56-1.06 1.02-1.42a2.5 2.5 0 0 1 1.48-.48c.19 0 .36.01.51.04v1.9"/><path id="j" d="M861.9 6459.8c0-.59-.13-1.1-.4-1.52-.36-.55-.9-.83-1.63-.83-.67 0-1.21.27-1.63.8-.34.44-.54.95-.6 1.55h4.25zm1.94.53c0 .36-.02.66-.07.9h-6.13c.02.9.32 1.57.89 2.04a3.1 3.1 0 0 0 2 .63c.91 0 1.74-.14 2.48-.43l.32 1.39c-.87.36-1.9.55-3.08.55a4.53 4.53 0 0 1-3.36-1.23 4.48 4.48 0 0 1-1.22-3.3c0-1.35.38-2.47 1.14-3.37a3.96 3.96 0 0 1 3.21-1.44c1.33 0 2.33.48 3.01 1.44.54.76.81 1.7.81 2.82z"/><path id="k" d="M791.66 6445.8l-.53-1.6c-.06-.16-.16-.54-.32-1.15h-.01l-.3 1.15-.52 1.6h1.68zm1.83 2.55h-1.07l-.58-1.8h-2.04l-.56 1.8h-1.04l2.02-6.12h1.24l2.03 6.12z"/><path id="l" d="M798.54 6443.93l-1.7 4.41h-.98l-1.66-4.41h1.08l.77 2.33c.13.4.24.76.33 1.12h.02c.08-.32.19-.7.33-1.12l.76-2.33h1.05"/><path id="m" d="M802.05 6446.14c-1.12 0-1.68.27-1.68.9 0 .46.29.68.69.68.51 0 .99-.38.99-.9v-.68zm.13 2.2l-.08-.5h-.02c-.31.4-.76.6-1.32.6-.81 0-1.39-.55-1.39-1.3 0-1.09.97-1.65 2.64-1.65v-.08c0-.58-.32-.87-.94-.87-.44 0-.84.1-1.18.33l-.2-.65c.42-.25.94-.38 1.55-.38 1.18 0 1.78.6 1.78 1.82v1.63c0 .44.02.79.06 1.05h-.9z"/><path id="n" d="M804.77 6443.93h1.02v4.42h-1.02zm.49-.71a.58.58 0 0 1-.6-.6c0-.33.27-.58.61-.58.35 0 .63.25.62.58 0 .36-.26.6-.63.6z"/><path id="o" d="M807.56 6441.91h1v6.43h-1z"/><path id="p" d="M812.7 6446.15c-1.11 0-1.68.26-1.68.88 0 .46.3.68.7.68.51 0 .99-.37.99-.89v-.67zm.14 2.2l-.08-.52h-.02c-.31.41-.76.61-1.32.61-.81 0-1.39-.55-1.39-1.3 0-1.08.97-1.65 2.64-1.65v-.08c0-.58-.32-.87-.94-.87-.44 0-.84.1-1.18.33l-.2-.65c.42-.25.94-.38 1.55-.38 1.18 0 1.78.6 1.78 1.82v1.63c0 .44.02.79.06 1.05h-.9z"/><path id="q" d="M817.54 6444.61c-.58 0-1.1.5-1.1 1.17v.78c0 .6.47 1.1 1.08 1.1.75 0 1.2-.6 1.2-1.55 0-.89-.46-1.5-1.18-1.5zm.2 3.83c-.64 0-1.11-.26-1.42-.78h-.02l-.06.68h-.85c.03-.35.04-.75.04-1.18v-5.25h1v2.67h.02c.3-.5.78-.74 1.44-.74 1.1 0 1.85.91 1.85 2.24 0 1.37-.84 2.36-2 2.36z"/><path id="r" d="M821.23 6441.91h1v6.43h-1z"/><path id="s" d="M826.79 6445.67c0-.68-.36-1.16-1-1.16-.58 0-1.04.5-1.1 1.16h2.1zm.91.7h-3.01c.02.84.58 1.3 1.42 1.3.45 0 .86-.07 1.22-.2l.16.68c-.43.18-.93.27-1.52.27-1.41 0-2.25-.87-2.25-2.22s.86-2.37 2.14-2.37c1.15 0 1.88.84 1.88 2.1 0 .17 0 .32-.04.44z"/><path id="t" d="M833.83 6444.56c-.73 0-1.2.66-1.2 1.58 0 .9.48 1.56 1.19 1.56.7 0 1.19-.7 1.19-1.58 0-.9-.47-1.56-1.18-1.56zm-.04 3.88c-1.32 0-2.18-.96-2.18-2.27 0-1.36.87-2.33 2.25-2.33 1.3 0 2.18.92 2.18 2.26 0 1.38-.9 2.34-2.25 2.34z"/><path id="u" d="M841.44 6448.34h-1v-2.53c0-.78-.3-1.17-.91-1.17-.6 0-1 .5-1 1.08v2.62h-1.01v-3.15c0-.39-.01-.8-.04-1.26h.88l.05.68h.03c.27-.47.82-.77 1.43-.77.95 0 1.57.7 1.57 1.86v2.64"/><path id="v" d="M848 6444.66h-1.1v2.15c0 .54.2.81.59.81.17 0 .32-.02.44-.04l.03.74c-.2.07-.45.11-.78.11-.79 0-1.26-.43-1.26-1.54v-2.23h-.66v-.73h.66v-.8l.98-.3v1.1h1.1v.73"/><path id="w" d="M853.33 6448.34h-1.01v-2.51c0-.79-.3-1.19-.91-1.19-.52 0-1 .35-1 1.05v2.65h-1.01v-6.43h1v2.65h.02c.32-.48.78-.72 1.36-.72.96 0 1.55.73 1.55 1.88v2.62"/><path id="x" d="M857.55 6445.67c0-.68-.36-1.16-1-1.16-.58 0-1.04.5-1.1 1.16h2.1zm.91.7h-3.01c.02.84.58 1.3 1.42 1.3.45 0 .86-.07 1.22-.2l.16.68c-.43.18-.93.27-1.52.27-1.41 0-2.25-.87-2.25-2.22s.86-2.37 2.14-2.37c1.15 0 1.88.84 1.88 2.1 0 .17 0 .32-.04.44z"/></defs><use fill="#fff" xlink:href="#a" transform="translate(-757 -6441)"/><use fill="#fff" xlink:href="#b" transform="translate(-757 -6441)"/><use fill="#fff" xlink:href="#c" transform="translate(-757 -6441)"/><use fill="#fff" xlink:href="#d" transform="translate(-757 -6441)"/><use fill="#fff" xlink:href="#e" transform="translate(-757 -6441)"/><use fill="#fff" xlink:href="#f" transform="translate(-757 -6441)"/><use fill="#fff" xlink:href="#g" transform="translate(-757 -6441)"/><use fill="#fff" xlink:href="#h" transform="translate(-757 -6441)"/><use fill="#fff" xlink:href="#i" transform="translate(-757 -6441)"/><use fill="#fff" xlink:href="#j" transform="translate(-757 -6441)"/><g fill="#fff" transform="translate(-757 -6441)"><use xlink:href="#k"/><use xlink:href="#l"/><use xlink:href="#m"/><use xlink:href="#n"/><use xlink:href="#o"/><use xlink:href="#p"/><use xlink:href="#q"/><use xlink:href="#r"/><use xlink:href="#s"/><use xlink:href="#t"/><use xlink:href="#u"/><use xlink:href="#v"/><use xlink:href="#w"/><use xlink:href="#x"/></g></svg>