<svg xmlns="http://www.w3.org/2000/svg" xmlns:xlink="http://www.w3.org/1999/xlink" width="118" height="29"><defs><path id="a" d="M1036.78 6457.22l-4.76 2.8-2.58-3.7 2.58-3.7 4.76 2.8a1.06 1.06 0 0 1 0 1.8zm-13.5 7.98l5.2-7.5 2.19 3.13zm-2.98 1.51a.97.97 0 0 1-.4-.13c-.31-.19-.5-.53-.5-.9v-18.72c0-.37.19-.71.5-.9a.99.99 0 0 1 .4-.14l7.22 10.4zm10.37-14.89l-2.18 3.14-5.22-7.5zm-9-7.15a2.5 2.5 0 0 0-2.55 0 2.66 2.66 0 0 0-1.28 2.29v18.72c0 .93.48 1.8 1.27 2.28a2.5 2.5 0 0 0 2.56.01l15.88-9.36a2.68 2.68 0 0 0 0-4.58z"/><path id="b" d="M1099.13 6459.13c.35-.13.53-.24.53-.5 0-.73-.83-1.58-1.82-1.58-.74 0-2.12.57-2.12 2.56 0 .31.04.64.06.97l3.35-1.45zm2.68 4.67l-.9.82c-.2.12-.4.25-.6.34-.63.27-1.26.34-1.82.34-.6 0-1.53-.04-2.48-.71a4.7 4.7 0 0 1-1.9-3.86c0-2.84 2.35-4.23 4.27-4.23.67 0 1.36.16 1.92.51.93.6 1.18 1.4 1.3 1.81l-4.37 1.74-1.44.11c.47 2.33 2.07 3.68 3.84 3.68.89 0 1.54-.28 2.15-.57 0 0 .12-.07.03.02z"/><path id="c" d="M1092.66 6463.7c0 .71.13.82.74.88.32.03.64.05.95.09l-.68.4h-3.28c.43-.55.5-.6.5-.97v-11.26h-1.45l1.4-.66h2.65c-.58.33-.75.53-.82 1.17v10.35"/><path id="d" d="M1086.79 6461.97c-.3.29-.79.5-1.25.5-1.58 0-2.3-2.01-2.3-3.23 0-.48.1-.97.4-1.35.3-.36.82-.6 1.3-.6 1.52 0 2.31 2.04 2.31 3.35 0 .33-.04.9-.46 1.33zm-.52 3.51c1.42 1 2.04 1.5 2.04 2.46 0 1.15-.95 2-2.75 2-2 0-3.29-.95-3.29-2.26 0-1.32 1.2-1.77 1.61-1.92.78-.26 1.8-.3 1.96-.3.19 0 .28 0 .43.02zm1.31-8.08h1.15l1.2-.66h-3.83c-1 0-2.27.15-3.32 1-.8.68-1.2 1.61-1.2 2.45 0 1.42 1.12 2.87 3.09 2.87.18 0 .39-.02.6-.04-.1.22-.2.4-.2.71 0 .57.3.91.56 1.25-.83.05-2.39.14-3.54.83-1.1.64-1.43 1.57-1.43 2.23 0 1.35 1.3 2.61 3.99 2.61 3.19 0 4.88-1.73 4.88-3.45 0-1.26-.74-1.88-1.56-2.56l-.67-.5c-.2-.17-.48-.39-.48-.8 0-.39.28-.65.52-.88.78-.6 1.56-1.25 1.56-2.6 0-1.38-.9-2.12-1.32-2.46z"/><path id="e" d="M1078.33 6463.81c.45-.59.56-1.32.56-2.04 0-1.62-.79-4.72-3.1-4.72-.61 0-1.23.24-1.68.63-.73.64-.86 1.45-.86 2.25 0 1.82.91 4.82 3.17 4.82a2.4 2.4 0 0 0 1.9-.94zm-2.31 1.5a4.36 4.36 0 0 1-4.54-4.34c0-2.41 1.99-4.47 4.82-4.47a4.32 4.32 0 0 1 4.44 4.34c0 2.17-1.7 4.46-4.72 4.46z"/><path id="f" d="M1068.43 6463.81a3.3 3.3 0 0 0 .56-2.04c0-1.62-.79-4.72-3.1-4.72-.62 0-1.23.24-1.68.63-.73.64-.86 1.45-.86 2.25 0 1.82.92 4.82 3.18 4.82a2.4 2.4 0 0 0 1.9-.94zm-2.31 1.5a4.36 4.36 0 0 1-4.54-4.34c0-2.41 1.99-4.47 4.82-4.47a4.32 4.32 0 0 1 4.44 4.34c0 2.17-1.69 4.46-4.72 4.46z"/><path id="g" d="M1060.35 6464.77l-2.5.56c-1.02.16-1.93.3-2.9.3-4.82 0-6.66-3.5-6.66-6.23 0-3.34 2.6-6.43 7.07-6.43.95 0 1.86.14 2.68.36 1.32.36 1.93.8 2.31 1.07l-1.45 1.35-.62.14.44-.69c-.59-.56-1.68-1.61-3.74-1.61-2.77 0-4.85 2.06-4.85 5.07a6.13 6.13 0 0 0 6.2 6.28 5.3 5.3 0 0 0 2.22-.43v-2.77l-2.65.14 1.4-.74h3.71l-.45.43c-.12.1-.14.13-.17.27-.02.16-.04.65-.04.83v2.1"/><path id="h" d="M1113.2 6461.05c0-2.1-1.11-3.68-3.07-3.68-1.22 0-2.39.94-2.9 1.76v3.82c.51.82 1.68 1.8 2.9 1.8 1.96 0 3.06-1.6 3.06-3.7zm-5.99 2.83v4.64h-.94v-11.8h.94v1.34a3.77 3.77 0 0 1 3.04-1.56c2.34 0 3.91 1.73 3.91 4.48 0 2.73-1.57 4.5-3.9 4.5a3.76 3.76 0 0 1-3.05-1.6z"/><path id="i" d="M1115.46 6453.44h.97v11.87h-.97z"/><path id="j" d="M1126.93 6467.71c.2.09.55.14.77.14.57 0 .97-.23 1.34-1.04l.68-1.53-3.71-8.62h1.05l3.19 7.47 3.15-7.47h1.07l-4.53 10.43c-.47 1.08-1.21 1.6-2.23 1.6-.3 0-.7-.06-.94-.13l.16-.85"/><path id="k" d="M1120.9 6464.66c.8 0 1.38-.17 1.98-.52.58-.35.98-.8 1.2-1.35v-1.65h-2.23a3.7 3.7 0 0 0-2.1.55c-.55.37-.83.82-.83 1.34 0 .5.17.89.53 1.18.35.3.84.45 1.45.45zm3.37.63c-.07-.3-.11-.56-.15-.78a5.12 5.12 0 0 1-.04-.67c-.33.47-.79.85-1.38 1.16-.59.3-1.15.46-1.91.46-.93 0-1.64-.22-2.15-.67a2.32 2.32 0 0 1-.77-1.84c0-.77.37-1.4 1.11-1.87a5.2 5.2 0 0 1 2.89-.72h2.2v-1.07c0-.61-.2-1.1-.64-1.45a2.8 2.8 0 0 0-1.81-.53c-.72 0-1.3.17-1.74.48-.43.32-.66.72-.66 1.2h-.97l-.02-.04c-.03-.65.27-1.22.92-1.71.64-.5 1.48-.74 2.52-.74a4 4 0 0 1 2.5.73c.63.48.95 1.17.95 2.08v4.24a6.59 6.59 0 0 0 .24 1.74h-1.1z"/><path id="l" d="M1047.97 6445.45c0-1.7 1.39-2.78 3.1-2.78 1.16 0 1.92.5 2.39 1.11l-.85.45c-.31-.4-.87-.72-1.53-.72-1.17 0-2.04.8-2.04 1.94 0 1.12.87 1.94 2.04 1.94.6 0 1.13-.25 1.4-.48v-.83h-1.77v-.83h2.8v2c-.58.6-1.41 1-2.43 1-1.72 0-3.11-1.11-3.11-2.8"/><path id="m" d="M1054.85 6448.16v-5.41h4.11v.84h-3.06v1.39h3v.83h-3v1.51h3.06v.84h-4.11"/><path id="n" d="M1061.77 6448.16v-4.57h-1.79v-.84h4.62v.84h-1.8v4.57h-1.03"/><path id="o" d="M1068.29 6442.75h1v5.4h-1z"/><path id="p" d="M1072.18 6448.16v-4.57h-1.79v-.84h4.62v.84h-1.8v4.57h-1.03"/><path id="q" d="M1083.49 6445.41c0-1.1-.78-1.92-1.98-1.92s-1.97.82-1.97 1.92.77 1.93 1.97 1.93 1.98-.83 1.98-1.93zm-5.04.05c0-1.61 1.27-2.79 3.06-2.79 1.8 0 3.07 1.18 3.07 2.79 0 1.6-1.28 2.78-3.07 2.78-1.8 0-3.06-1.18-3.06-2.78z"/><path id="r" d="M1089.87 6448.16l-3.08-3.87v3.87h-1.04v-5.41h1.06l3.02 3.75v-3.75h1.04v5.4h-1"/></defs><use fill="#fff" xlink:href="#a" transform="translate(-1017 -6442)"/><use fill="#fff" xlink:href="#b" transform="translate(-1017 -6442)"/><use fill="#fff" xlink:href="#c" transform="translate(-1017 -6442)"/><use fill="#fff" xlink:href="#d" transform="translate(-1017 -6442)"/><use fill="#fff" xlink:href="#e" transform="translate(-1017 -6442)"/><use fill="#fff" xlink:href="#f" transform="translate(-1017 -6442)"/><use fill="#fff" xlink:href="#g" transform="translate(-1017 -6442)"/><use fill="#fff" xlink:href="#h" transform="translate(-1017 -6442)"/><use fill="#fff" xlink:href="#i" transform="translate(-1017 -6442)"/><use fill="#fff" xlink:href="#j" transform="translate(-1017 -6442)"/><use fill="#fff" xlink:href="#k" transform="translate(-1017 -6442)"/><g fill="#fff" transform="translate(-1017 -6442)"><use xlink:href="#l"/><use xlink:href="#m"/><use xlink:href="#n"/><use xlink:href="#o"/><use xlink:href="#p"/><use xlink:href="#q"/><use xlink:href="#r"/></g></svg>