<svg xmlns="http://www.w3.org/2000/svg" xmlns:xlink="http://www.w3.org/1999/xlink" width="25" height="25"><defs><path id="a" d="M917.05 7685.74c0 2.93-2.38 5.3-5.31 5.3h-10.48a5.31 5.31 0 0 1-5.3-5.3v-10.48c0-2.93 2.37-5.3 5.3-5.3h10.48c2.93 0 5.3 2.37 5.3 5.3zm-5.31-17.74h-10.48c-4 0-7.26 3.26-7.26 7.26v10.48c0 4 3.26 7.26 7.26 7.26h10.48c4 0 7.26-3.26 7.26-7.26v-10.48c0-4-3.26-7.26-7.26-7.26z"/><path id="b" d="M906.5 7685.38a4.89 4.89 0 1 1 .01-9.77 4.89 4.89 0 0 1-.01 9.77zm0-11.76a6.88 6.88 0 1 0 .02 13.77 6.88 6.88 0 0 0-.02-13.77z"/><path id="c" d="M912.75 7673.94a.94.94 0 1 1 1.87 0 .94.94 0 0 1-1.87 0z"/></defs><use fill="#d1504a" xlink:href="#a" transform="translate(-894 -7668)"/><use fill="#d1504a" xlink:href="#b" transform="translate(-894 -7668)"/><use fill="#d1504a" xlink:href="#c" transform="translate(-894 -7668)"/></svg>