<svg xmlns="http://www.w3.org/2000/svg" viewBox="0 0 243 70.44"><defs><style>.a{fill:#333}</style></defs><path class="a" d="M0 29.1h16c2.8 0 3.9 1.11 3.91 3.89 0 3.2-.06 6.4.06 9.59.09 2.32-.67 4-2.79 5a16.85 16.85 0 0 0-1.59 1c.89.57 1.63 1.07 2.41 1.53a4.15 4.15 0 0 1 2.19 3.79v12.5c0 2.25-1.17 3.5-3.29 3.51H.76a4.51 4.51 0 0 1-.65-.1V48.39A2.44 2.44 0 0 0 0 47.04zm6.37 22.2v13.37H14V53.39c-2.12-2.5-4.82-2.35-7.63-2.09zm-.1-5.26c2.91.35 5.57.41 7.48-2.08v-9.65H6.27zM204.4 27.85h6a2.14 2.14 0 0 1 .19 1.38v19.43a19 19 0 0 1-.93 5.49c-.12.4-.42.8-.23 1.37a5.81 5.81 0 0 0 5.11-2.66 5.62 5.62 0 0 0 .71-5.84 12.79 12.79 0 0 0-2.2-2.88A3.31 3.31 0 0 1 212 42.6l7.45-.91a11.85 11.85 0 0 1 .72 13.82c-3 4.69-8.13 6.72-14 5.47a25.8 25.8 0 0 1-3.84 3.75v2a3.61 3.61 0 0 1-3.84 3.68h-18.33c-2.46 0-3.86-1.39-3.8-3.85a2.66 2.66 0 0 0-1.1-2.34 20.67 20.67 0 0 1-7.68-16.46c0-6.11-.06-12.22-.1-18.33v-1.45h6v5.32c0 4.46 0 8.91.11 13.36.07 5.52 4.09 10.83 9.78 12.93 9.63 3.57 20.28-3.12 20.91-13.36.34-5.44.07-10.92.08-16.38zm-105.47.92h6.25c-1.94 13.66-3.88 27.24-5.82 40.86h-6.07c-1.33-8.31-2.66-16.65-3.89-24.33l-3.69 24.34H79.6c-2-13.53-4.06-27.06-6.1-40.72h6.26c1.17 8.73 2.34 17.49 3.42 25.56 1.13-8 2.36-16.79 3.59-25.59h5.14l3.77 25.55c1.04-8.23 2.14-16.92 3.25-25.67zm15-.13l9.41 23.95V28.72h5.94v40.76H124l-9.09-23.59-.24.06v23.53a56.24 56.24 0 0 1-6 .16V28.76c1.7-.23 3.45-.06 5.26-.12zM49.53 49.2V32.94c0-3 1.09-4 4-4h12.75c2.66 0 3.88 1.19 3.89 3.84q.06 16.64.07 33.27c0 2.64-1.13 3.73-3.78 3.74-4.25 0-8.5.09-12.74.1-3 0-4.12-1.11-4.12-4.09V49.28zm6.31-14.95v30.16H64V34.25zM46 69.81h-6.46c-.94-2.61-1.89-5.22-2.83-7.84l-3.32-9.24a10.58 10.58 0 0 1-.5-5.61h5.76v-12.8h-7.53v35.51H25V29.04c.28-.2.74-.12 1.18-.12h14.7c2.69 0 3.86 1 3.91 3.66.11 5 .12 10 .08 15.06 0 2.41-1 3.35-3.37 3.56l-2.28.19c2.27 6.16 4.48 12.19 6.78 18.42zm119.33-27.94h-6.14v-7.93h-7.78v30.1h7.79v-8.41h6.09a6.84 6.84 0 0 1 .13 2.35v7.65c0 2.55-1.15 3.76-3.69 3.78h-13.24a3 3 0 0 1-3.18-3.11c-.06-1.13-.05-2.26-.05-3.39q-.06-15.06-.11-30.11c0-3.22 1-4.23 4.19-4.23 4.32 0 8.65-.05 13 0a2.62 2.62 0 0 1 2.82 2.47c.25 3.57.26 7.13.17 10.83zm57.99-13.49c5.48-.21 11-.22 16.48-.11 2.05 0 3.15 1.35 3.16 3.4v19.19a3.15 3.15 0 0 1-3.48 3.47h-8.74a2.45 2.45 0 0 0-1.33.15v14.63h-6.13zm6.15 5.22v15.34h7.23V33.6z"/><path class="a" d="M192.29 36.04c-.46 0-.71-.11-.84-.5a6.21 6.21 0 0 0-2.63-3.07c-1.25-.89-2.52-1.76-3.71-2.73a13 13 0 0 1-2.72-17.44 35.88 35.88 0 0 1 7-7.38c1.75-1.53 3.76-2.8 4.94-4.92a7.08 7.08 0 0 1-1.81 3.63c-1.69 2.06-3.46 4.06-5.17 6.11a19.31 19.31 0 0 0-2.9 4.46 8.63 8.63 0 0 0 1.55 10c1.69 1.9 3.47 3.72 5.1 5.68a6 6 0 0 1 1.61 5.25 3.93 3.93 0 0 1-.19.58 2.08 2.08 0 0 1-.23.33zm25.9-9.06c-.93 2.11-1.78 4.1-2.7 6.05a1.93 1.93 0 0 0 0 1.93c.83 1.52 1.58 3.08 2.47 4.82l-5.89.74V27.64z"/><path class="a" d="M194.9 9.64a8.76 8.76 0 0 1-1.41 2.71 33.22 33.22 0 0 0-2.39 3.8 7.09 7.09 0 0 0 .56 7.77 25.29 25.29 0 0 1 2.34 3.41 3.65 3.65 0 0 1 .05 3.33c-1-2.6-3.58-3.64-4.63-5.88a9.34 9.34 0 0 1 .74-9.57 33.13 33.13 0 0 1 4.74-5.57z"/></svg>