<?xml version="1.0" encoding="UTF-8"?>
<svg width="251px" height="374px" viewBox="0 0 251 374" version="1.1" xmlns="http://www.w3.org/2000/svg" xmlns:xlink="http://www.w3.org/1999/xlink">
    <!-- Generator: Sketch 51.2 (57519) - http://www.bohemiancoding.com/sketch -->
    <title>Group 42</title>
    <desc>Created with Sketch.</desc>
    <defs>
        <polygon id="path-1" points="0 0.629878992 252.487201 0.629878992 252.487201 376 0 376"></polygon>
    </defs>
    <g id="Page-1" stroke="none" stroke-width="1" fill="none" fill-rule="evenodd">
        <g id="Group-42" transform="translate(-1.000000, -2.000000)">
            <g id="Group-3">
                <mask id="mask-2" fill="white">
                    <use xlink:href="#path-1"></use>
                </mask>
                <g id="Clip-2"></g>
            </g>
            <path d="M252,290.001405 C251.902142,290.825163 251.763246,291.644169 251.714317,292.471096 C251.015105,304.466284 246.433134,314.771184 238.12624,323.362033 C230.264443,331.491894 220.619102,336.206326 209.430127,337.592458 C202.3654,338.468493 195.393797,337.776219 188.624222,335.499795 C187.625122,335.163955 187.104264,335.281182 186.46503,336.149296 C181.294331,343.167084 175.159257,349.22646 168.124519,354.354355 C167.374799,354.900887 167.330605,355.401479 167.477392,356.23791 C168.176605,360.198287 168.272884,364.218861 167.497911,368.142802 C166.535113,373.021986 162.314586,375.992268 156.910291,375.993853 C133.812611,376.000189 110.714932,376.006526 87.6172519,375.985932 C83.8497133,375.982764 80.0727044,375.995437 76.3177926,375.735636 C72.2740414,375.455241 68.353402,371.708725 68.0203687,367.643795 C67.7299509,364.104802 67.8720031,360.519869 68.0203687,356.961867 C68.0598276,355.998704 67.8625329,355.561478 67.1364886,355.045045 C59.803441,349.815764 53.418986,343.596388 48.0383662,336.359988 C39.6036252,325.012718 34.1772331,312.369612 31.950171,298.368889 C31.7528764,297.128499 31.5887272,295.880188 31.4308915,294.633461 C31.2793692,293.426339 31.1578357,292.217632 31,290.815658 C32.6162378,290.573283 34.2056435,290.318235 35.7997843,290.101206 C38.9470286,289.673486 42.1005863,289.29329 45.2446739,288.840223 C46.3258486,288.681808 46.8372364,288.924183 47.1750048,290.101206 C54.9026418,317.004836 72.1225191,334.419404 99.0556067,341.899763 C106.895307,344.076386 114.944929,344.426483 123.076625,343.648665 C152.787622,340.800363 178.705826,318.623838 185.592198,287.507952 C186.783858,282.125008 187.375742,276.669193 187.23369,271.142092 C187.225798,270.814173 187.670895,270.218532 187.966047,270.174176 C192.972597,269.456556 197.987037,268.80547 203.001478,268.148047 C203.154579,268.127453 203.320307,268.186067 203.620194,268.227255 L203.620194,269.599129 C203.620194,274.858509 203.695956,280.119474 203.604411,285.377269 C203.392911,297.527705 200.918047,309.188637 195.87046,320.268187 C195.668431,320.714917 195.490076,321.174321 195.16967,321.936297 C197.636642,322.273721 199.888958,322.760055 202.158636,322.863025 C218.86239,323.636091 231.651819,312.067039 234.674373,296.222364 C236.079111,288.859232 234.814847,282.14877 230.486991,275.989593 C227.233997,271.362289 223.449096,267.214983 219.514252,263.186488 C218.027439,261.664119 216.512216,260.168681 214.802855,258.45463 C216.125519,258.28671 217.178283,258.144136 218.231047,258.022157 C223.963641,257.36315 229.699391,256.727906 235.427249,256.041968 C236.592077,255.902563 237.412823,256.073651 238.208315,257.119191 C242.282055,262.481541 246.13956,267.96587 248.775416,274.218512 C250.618937,278.595521 251.678015,283.143617 251.777452,287.907158 C251.786922,288.353888 251.92266,288.797451 252,289.242597 L252,290.001405 Z" id="Fill-4" fill="#FFFFFF"></path>
            <path d="M168.953391,249.198763 C172.2974,246.936799 175.445724,244.58613 177.427827,241.047456 C179.640333,237.096939 182.806016,234.112667 186.481427,231.597262 C186.850704,231.345404 187.199466,231.063451 187.658695,230.719721 C186.044292,229.507955 184.33678,229.159473 182.564565,229.297282 C175.955453,229.8105 169.071749,235.77746 167.589907,242.235462 C167.024944,244.697011 167.149615,247.046095 168.953391,249.198763 Z M65.8509179,264.262682 C66.7567514,262.594722 66.9366556,260.781032 66.426927,258.729741 C64.8614448,252.423804 58.3975179,246.658013 52.0030278,245.946794 C49.4701659,245.666424 47.0982709,246.094106 45.1871831,248.072533 C45.3276347,248.313302 45.4018057,248.512887 45.5343667,248.661784 C48.1871648,251.61596 51.1003506,254.172549 54.7694496,255.889614 C57.1271417,256.993668 59.3333355,258.503228 61.4337961,260.06506 C63.0245281,261.248314 64.3406694,262.803811 65.8509179,264.262682 Z M38.9994251,206.161255 C39.3529211,206.161255 39.5217785,206.180263 39.6843236,206.158087 C43.1656279,205.678133 46.5269961,204.935233 48.6842685,201.757712 C49.0330302,201.244493 49.4023073,200.607722 49.4117759,200.021639 C49.4764783,196.159826 49.4480724,192.294846 49.44176,188.43145 C49.44176,188.021191 49.3944167,187.612517 49.369167,187.189587 C49.1024669,187.153155 48.927297,187.081874 48.7821112,187.118307 C45.7474112,187.881799 42.7095549,188.632619 39.6969484,189.472143 C39.3876394,189.559264 39.0451902,190.184947 39.0325653,190.573029 C38.9631286,192.502351 38.9994251,194.436425 38.9994251,196.365747 L38.9994251,206.161255 Z M43.9815093,249.669213 C42.8531627,251.449639 42.8247568,253.192048 43.1861433,254.918617 C44.5780338,261.568284 51.2029275,267.528908 57.9540698,268.216367 C60.4174951,268.465057 62.6789226,267.929662 64.5237298,266.065284 C64.3564505,265.792834 64.2554516,265.556817 64.0960628,265.373072 C61.2428451,262.084671 58.1418646,259.124159 54.0198488,257.44511 C51.2770986,256.329968 48.8405011,254.715864 46.7589778,252.590125 C45.8547224,251.668232 44.9772949,250.717827 43.9815093,249.669213 Z M170.350016,250.591106 C171.759266,251.674568 173.660885,252.203627 175.349459,252.064234 C182.187398,251.495575 189.107397,245.409815 190.44721,238.658771 C190.893815,236.398391 190.765988,234.147515 189.131069,232.297393 C188.977993,232.306897 188.888041,232.289473 188.815448,232.321154 C188.662371,232.38293 188.509295,232.457378 188.370421,232.547667 C184.671338,235.004464 181.319439,237.806575 179.103776,241.772932 C177.65034,244.373873 175.6493,246.505949 173.299498,248.31647 C172.344744,249.053034 171.389989,249.788014 170.350016,250.591106 Z M97.5992772,242.042213 C94.9922443,242.073893 92.5666936,242.740761 90.4283584,244.286753 C87.5830313,246.345964 86.6235421,249.249451 87.0859275,252.593293 C87.5230632,255.758141 89.0301555,258.305227 92.1437609,259.569266 C95.4783013,260.925177 98.78917,260.717672 101.958009,259.084559 C103.720755,258.176922 105.074771,256.808339 105.382502,254.69844 C105.538734,253.616562 105.107911,252.78971 104.135797,252.320843 C102.759688,251.65556 100.608728,252.273323 99.9869533,253.664082 C99.2673365,255.279771 98.0048508,255.40174 96.564039,255.305115 C95.0301188,255.203739 93.6808372,254.628743 93.2768418,253.062159 C92.9533298,251.806041 92.8980961,250.427953 92.9943606,249.124314 C93.0906252,247.803251 94.0516924,246.973231 95.2873503,246.555053 C96.8954415,246.013322 98.2936444,246.377644 99.5655987,247.52605 C100.651336,248.506551 102.884358,248.291126 103.794926,247.218752 C104.563464,246.315868 104.303076,245.189638 103.023231,243.933519 C101.512983,242.454055 99.6255668,242.046965 97.5992772,242.042213 Z M38.9994251,231.890303 C42.4381205,231.435693 45.6669277,231.044443 48.8767976,230.52964 C49.1876847,230.478952 49.5885239,229.672692 49.5948364,229.213329 C49.6469139,224.466056 49.6311328,219.715615 49.618508,214.966758 C49.618508,214.5961 49.6390234,214.011601 49.4370256,213.891216 C47.9188866,212.997835 46.5269961,211.657764 44.5906586,211.885862 C43.1025036,212.06327 41.6474888,212.514713 40.1609119,212.709546 C39.1840636,212.837851 38.9741753,213.278205 38.9820659,214.18901 C39.0215186,219.275261 38.9994251,224.359927 38.9994251,229.446178 L38.9994251,231.890303 Z M150.675754,179.039864 C149.015586,193.86935 147.390135,208.388371 145.764685,222.899472 C146.07715,222.97392 146.200243,223.038864 146.312288,223.027776 C149.050304,222.696719 151.785164,222.348237 154.521602,222.026683 C155.351686,221.930059 155.397451,221.415256 155.309077,220.767396 C155.149688,219.60315 154.988721,218.442072 154.853004,217.276242 C154.234386,211.942886 153.629971,206.611114 153.008197,201.279341 C152.359595,195.700464 151.679431,190.12317 151.0545,184.539541 C150.861971,182.814556 150.811472,181.073731 150.675754,179.039864 Z M121.198291,256.033759 C121.453945,256.211168 121.67488,256.406001 121.930533,256.52797 C123.199331,257.137813 124.453926,257.096629 125.616991,256.288784 C126.683792,255.547468 127.040444,254.383222 126.554387,253.279168 C125.495477,250.86514 125.642241,248.264198 125.123044,245.777305 C124.739564,243.950943 124.289803,242.086565 123.50864,240.407516 C122.76693,238.817172 120.975778,238.52413 119.246173,239.314551 C117.840079,239.957658 117.453443,240.927071 117.9395,242.778777 C118.204622,243.790958 118.603883,244.766707 118.857958,245.780473 C119.203564,247.153808 119.598091,248.535063 119.730652,249.936911 C119.896353,251.665064 119.071003,252.723181 117.559176,253.146112 C115.900586,253.610226 114.401384,253.013055 113.593393,251.530423 C112.777512,250.031951 112.921119,248.473287 113.296709,246.879775 C113.620221,245.503271 113.956358,244.112512 114.081028,242.70908 C114.189918,241.481474 113.427692,240.683134 112.255158,240.318812 C110.34407,239.721641 108.145767,241.007855 107.508212,243.368028 C106.458771,247.252016 106.780705,251.040965 109.008992,254.492519 C110.24465,256.407585 111.994771,257.698552 114.324057,257.896553 C116.803263,258.10881 119.167267,257.711224 121.198291,256.033759 Z M184.213687,173.182201 C184.11111,173.202793 184.008533,173.223385 183.904378,173.242393 C183.976971,174.108846 184.109532,174.975298 184.11111,175.840167 C184.134782,184.959303 184.139516,194.078439 184.145829,203.197576 C184.148985,207.778528 184.16161,212.357896 184.134782,216.938848 C184.130048,217.886085 184.287858,218.315352 185.413049,218.098342 C187.049546,217.783125 188.728652,217.70234 190.385664,217.491667 C192.191019,217.26357 193.993217,216.999041 195.943758,216.729759 C192.000068,202.091938 188.108456,187.636277 184.213687,173.182201 Z M133.684275,239.358903 C133.479121,239.12447 133.395481,239.029429 133.314998,238.934389 C132.164558,237.572141 130.807386,237.250588 129.305028,237.988736 C127.999933,238.628675 127.578578,239.742233 128.01098,241.517906 C128.249274,242.495239 128.656426,243.442476 128.779518,244.429314 C129.249794,248.215094 129.598556,252.013546 130.07041,255.797742 C130.292923,257.581335 130.531217,259.414033 131.798437,260.838056 C133.395481,262.634322 136.455431,262.244656 137.025128,260.0809 C137.258688,259.189104 136.774209,258.086634 136.543805,257.096629 C136.403354,256.491537 136.124029,255.916542 135.841547,255.148298 C136.483837,255.148298 136.812083,255.154634 137.141908,255.146714 C142.89253,255.029498 147.184981,251.39103 148.160252,245.715528 C149.028211,240.67363 144.756275,235.538275 139.284977,236.483928 C137.104033,236.859338 135.189789,237.573725 133.684275,239.358903 Z M82.7003678,178.529813 C79.566247,179.326569 76.5930932,180.120158 73.5962677,180.820289 C72.554717,181.064227 72.2106897,181.537845 72.2138459,182.621307 C72.2469861,198.687904 72.2359394,214.754501 72.2390956,230.821098 C72.2390956,231.267788 72.289595,231.714478 72.3164229,232.177009 C72.6067946,232.205521 72.7724958,232.253041 72.9303065,232.234033 C75.7077751,231.887135 78.4852436,231.537069 81.2627122,231.179084 C82.8455537,230.97633 82.8629128,230.962074 82.3736996,229.447762 C80.6046415,223.984517 78.8276929,218.522857 77.0428537,213.064364 C75.8213988,209.326104 74.2874787,205.667045 74.7403954,201.572383 C74.8382381,200.69009 75.0891571,200.29884 75.9160852,200.145191 C77.7230179,199.81255 79.5141695,199.386451 81.3274146,199.096578 C82.4226209,198.922337 82.8613347,198.481983 82.8487099,197.300312 C82.791898,191.540858 82.8266164,185.776652 82.8187258,180.015613 C82.8187258,179.570507 82.7492891,179.126984 82.7003678,178.529813 Z M105.354096,222.51139 C105.896965,222.51139 106.354616,222.565246 106.798064,222.50347 C109.570798,222.124892 112.330907,221.621177 115.11311,221.36932 C116.40558,221.250519 116.661233,220.795909 116.658077,219.593646 C116.618624,203.531801 116.632827,187.469956 116.632827,171.408112 L116.632827,169.854199 C116.074177,169.96508 115.749087,170.0126 115.431888,170.093385 C112.559733,170.822028 109.700203,171.615617 106.80911,172.261892 C105.603437,172.531173 105.219957,173.053896 105.223113,174.294175 C105.264144,189.852305 105.248363,205.407267 105.254675,220.965398 C105.254675,221.461192 105.316221,221.956987 105.354096,222.51139 Z M129.480198,157.538534 C132.139308,156.800386 134.740029,156.079663 137.574309,155.293994 C139.120854,170.902813 140.65004,186.32947 142.18396,201.789392 C142.284959,200.948284 142.401739,200.091335 142.486957,199.232803 C142.980904,194.265352 143.457492,189.296318 143.954596,184.328868 C144.390154,179.985517 144.836758,175.64375 145.294409,171.303567 C145.837278,166.17138 146.399084,161.042361 146.953,155.911758 C146.96089,155.827805 147.000343,155.742269 146.989296,155.663068 C146.615285,153.055791 147.983504,151.950153 150.361711,151.701463 C150.607896,151.674535 150.849346,151.582663 151.090797,151.51455 C153.841437,150.727298 153.854062,150.725714 154.168106,153.600689 C155.013971,161.359162 155.883508,169.116051 156.677296,176.879276 C157.419006,184.143539 158.073921,191.415721 158.771444,198.683152 C158.779335,198.760768 158.836146,198.832049 158.989223,199.16469 C159.098112,197.754923 159.180174,196.589093 159.284329,195.428015 C160.051289,186.856945 160.82614,178.285876 161.5931,169.716391 C162.202249,162.901987 162.808242,156.085999 163.398454,149.270011 C163.467891,148.482758 163.677779,147.972708 164.563097,147.754115 C166.829259,147.193376 169.065437,146.517004 171.623549,145.801032 C169.084374,170.831533 166.562559,195.668784 164.01865,220.746804 C165.377401,220.588404 166.594121,220.456931 167.809264,220.304866 C170.38,219.980144 172.946002,219.614238 175.521473,219.327533 C176.234778,219.248332 176.471494,218.942619 176.444666,218.285255 C176.427307,217.867077 176.444666,217.444147 176.444666,217.024385 C176.444666,193.381476 176.455713,169.736983 176.414682,146.094074 C176.413104,144.806275 176.744506,144.245536 178.035398,143.992095 C179.790253,143.649949 181.494609,143.052778 183.419899,142.509463 C187.690257,157.731783 191.946412,172.91292 196.202567,188.092472 C196.281473,188.073464 196.361956,188.054456 196.440861,188.035447 C196.374581,186.594 196.253067,185.150968 196.251488,183.707937 C196.237286,169.320389 196.256223,154.93284 196.218348,140.543708 C196.215192,139.33511 196.529235,138.747443 197.769628,138.482913 C199.800651,138.048895 201.789066,137.41054 203.973167,136.810201 L203.973167,138.327681 C203.973167,178.545653 203.966854,218.76521 203.999995,258.984767 C204.001573,260.312166 203.663858,260.703416 202.301951,260.869736 C192.886964,262.026063 183.489336,263.326533 174.082239,264.54622 C164.051791,265.849859 154.015029,267.101225 143.98458,268.40328 C133.957287,269.706919 123.936307,271.061246 113.907436,272.366469 C105.163145,273.503787 96.4109626,274.585665 87.6650928,275.721399 C79.5851843,276.770013 71.508432,277.869314 63.4285235,278.921096 C56.6316161,279.803389 49.8299743,280.644497 43.0314888,281.51887 C39.5091537,281.97348 35.9868185,282.434426 32.4739521,282.957149 C31.3771676,283.120302 31,282.843101 31,281.682022 C31.0236716,249.876718 31.0220935,218.072998 31.0031562,186.267694 C31.0015781,185.318873 31.2619658,184.869015 32.2340798,184.604485 C39.0057375,182.762284 45.7568798,180.834545 52.5238032,178.967 C55.732095,178.081539 57.3417643,179.318649 57.3607016,182.686251 C57.3906856,187.945159 57.396998,193.202483 57.3559672,198.462975 C57.3386081,200.607722 56.5968977,202.478436 54.8956982,203.900875 C53.7452581,204.863952 52.6421612,205.884054 51.3512696,207.026124 C52.6011304,207.632799 53.6600403,208.193538 54.7568248,208.667157 C56.7389273,209.522521 57.5926833,211.119201 57.6068863,213.160988 C57.6479171,219.344957 57.6337141,225.53051 57.6068863,231.714478 C57.6037301,232.489058 57.3954199,233.263639 57.2518122,234.24414 C59.4911462,233.952682 61.6342157,233.694489 63.7678165,233.369767 C63.9682361,233.339671 64.1939054,232.908821 64.2522954,232.630035 C64.3375132,232.226113 64.2822794,231.793679 64.2822794,231.372333 C64.2838576,213.325725 64.2964824,195.27595 64.2554516,177.227758 C64.2522954,176.049256 64.5789636,175.583558 65.7262475,175.27626 C72.3858596,173.487915 79.0186439,171.602945 85.664053,169.762327 C86.1437976,169.62927 86.6440575,169.53423 87.1411613,169.499381 C89.1122171,169.358405 90.2232045,170.240697 90.5419821,172.200116 C90.6303561,172.737095 90.657184,173.289913 90.657184,173.834812 C90.6634964,181.911671 90.6666526,189.990114 90.6540278,198.066972 C90.6524496,198.737008 90.6145751,199.419716 90.4757016,200.070743 C89.9959571,202.308947 88.5772388,203.652186 86.3868261,204.201837 C85.3436972,204.464782 84.2974122,204.718224 83.0901603,205.014433 C83.7703244,207.149676 84.4031454,209.174039 85.0612161,211.19365 C86.9691476,217.052897 88.9133756,222.901056 90.7786982,228.776143 C91.0911634,229.761396 91.5645956,230.006917 92.5004131,229.851685 C94.1448007,229.579235 95.8018132,229.376482 97.5298405,229.134129 C97.4383103,228.022155 97.2804996,226.992549 97.2789215,225.962944 C97.2631404,208.168194 97.2678747,190.37186 97.2694529,172.575526 C97.2694529,168.154558 98.7907481,166.114356 102.996404,164.918429 C106.043729,164.053561 109.097366,163.209284 112.414547,162.279471 C111.944271,161.793181 111.660212,161.408267 111.292513,161.134233 C107.424572,158.254506 103.578725,155.343099 99.6555508,152.539404 C93.2310767,147.948948 86.8839298,143.276123 81.5483496,137.377276 C73.7398755,128.742846 68.989773,118.654297 67.0471231,107.165484 C63.9571894,88.8828593 68.4042953,72.5422289 79.4226393,57.8442152 C85.4178683,49.8465569 92.2668532,42.6377348 99.7518154,36.054596 C106.840673,29.8231071 114.065247,23.745267 121.26615,17.6420827 C126.205625,13.4587166 130.144581,8.51185842 132.958346,2.66845153 C133.02936,2.52272276 133.130359,2.39125007 133.374966,2 C132.328681,7.4109726 130.008863,11.9380685 127.179317,16.2291472 C122.839523,22.809118 117.644394,28.6984611 112.405078,34.5497881 C105.485079,42.2749969 98.4987983,49.9463495 92.587209,58.5110827 C87.8371065,65.3935991 83.8713233,72.6721176 82.0438752,80.9263852 C79.3074375,93.2800665 81.7266757,104.605726 89.552509,114.508947 C93.9696308,120.097328 98.8743878,125.307132 103.689193,130.569208 C108.873275,136.23679 114.3209,141.66677 118.613352,148.097844 C121.829534,152.91323 124.103587,158.105609 124.644877,163.92684 C124.815313,165.757954 124.616471,167.622332 124.616471,169.469285 C124.611737,186.719136 124.613315,203.96582 124.613315,221.215671 L124.613315,225.726927 C126.546496,225.500414 128.607504,225.270732 130.663778,225.017291 C132.363399,224.808202 134.05513,224.49932 135.761064,224.371016 C136.737912,224.296567 137.099299,223.982933 136.976206,222.988176 C136.485415,219.032907 136.024608,215.07447 135.570113,211.114449 C135.109306,207.113244 134.673748,203.108871 134.217675,199.106082 C133.67165,194.312873 133.114578,189.519663 132.560663,184.728038 C132.031997,180.143918 131.490706,175.559797 130.971509,170.975677 C130.471249,166.559462 129.989926,162.141663 129.480198,157.538534 Z" id="Fill-6" fill="#FFFFFF"></path>
            <path d="M25,292.385497 C17.0808027,293.250148 9.20173913,294.111638 1.05297659,295 C1.27772575,294.418297 1.39491639,294.051571 1.55545151,293.700652 C4.79986622,286.598498 8.03304348,279.491602 11.3127759,272.405256 C11.7221405,271.521636 11.7269565,270.826121 11.2726421,269.944082 C8.02983278,263.629125 4.84481605,257.282553 1.64374582,250.945465 C1.45752508,250.578739 1.28575251,250.20411 1,249.60818 C9.07973244,248.730883 16.990903,247.870974 25,247 L25,292.385497 Z" id="Fill-8" fill="#FFFFFF"></path>
            <path d="M209.02881,251 L209.02881,249.418712 C209.02881,235.31046 209.044791,221.203789 209.000045,207.095536 C208.995251,205.83525 209.373995,205.50476 210.625291,205.386164 C215.680016,204.911777 220.717162,204.277681 225.765495,203.722649 C228.109877,203.463317 230.459054,203.251425 232.998402,203 C232.018779,205.169527 231.096688,207.222039 230.165007,209.271389 C227.695975,214.698369 225.246119,220.131675 222.730742,225.536518 C222.299261,226.464734 222.284878,227.188964 222.759508,228.110855 C226.010001,234.424938 229.199767,240.765903 232.407113,247.100544 C232.59249,247.465821 232.7507,247.842168 233,248.379806 C224.964857,249.257421 217.086326,250.119223 209.02881,251" id="Fill-10" fill="#FFFFFF"></path>
            <path d="M136,48.1641599 C135.187957,50.0283217 134.575362,52.0124465 133.527462,53.7329685 C130.806404,58.2031685 127.955546,62.6007594 125.04137,66.9478396 C121.280327,72.5592666 117.50662,78.1454382 115.122726,84.5271539 C111.092585,95.3143529 112.047092,105.558561 118.537108,115.150866 C121.614325,119.696832 124.895741,124.108629 128.023612,128.621447 C130.065593,131.565276 131.680182,134.725354 132.390918,138.283204 C132.933863,141.006048 132.853134,143.686274 131.814731,146.287577 C131.691263,146.595377 131.252791,147.034189 131.03118,146.997884 C130.57213,146.918961 129.859812,146.639574 129.774333,146.309676 C128.544396,141.515891 125.27881,138.177447 121.83277,134.92424 C119.148119,132.390811 116.460303,129.846333 113.984599,127.115596 C109.014197,121.638338 106.411858,115.078257 105.430441,107.792083 C103.557834,93.8905815 107.899813,81.8642911 116.417564,71.083406 C121.099873,65.1578654 125.780599,59.2275894 131.328771,54.0533959 C133.172886,52.332874 134.857124,50.4813399 135.675499,48 C135.783138,48.0536677 135.892361,48.1089138 136,48.1641599" id="Fill-12" fill="#FFFFFF"></path>
            <path d="M136.670318,249.999926 C134.531312,250.003186 134.431557,249.908648 134.254942,247.781549 C134.171541,246.751413 134.029268,245.721278 134.001467,244.689512 C133.954043,242.904705 135.059522,241.577917 136.873098,241.136197 C138.784793,240.668398 140.614722,241.43122 141.41276,243.031842 C143.167464,246.542778 140.815867,249.996666 136.670318,249.999926" id="Fill-40" fill="#FFFFFF"></path>
        </g>
    </g>
</svg>